<svg id="fiş_özet_bilgi" data-name="fiş özet bilgi" xmlns="http://www.w3.org/2000/svg" xmlns:xlink="http://www.w3.org/1999/xlink" width="19.367" height="19.745" viewBox="0 0 19.367 19.745">
  <defs>
    <clipPath id="clip-path">
      <rect id="Rectangle_135" data-name="Rectangle 135" width="19.367" height="19.745" transform="translate(0 0)" fill="none"/>
    </clipPath>
  </defs>
  <rect id="Rectangle_133" data-name="Rectangle 133" width="3.343" height="2.126" transform="translate(11.351 5.809)" fill="#fff"/>
  <path id="Path_176" data-name="Path 176" d="M8.072,8.554,6.2,6.686,7.438,5.453l.633.633,1.7-1.7L11,5.619Z" fill="#fff"/>
  <rect id="Rectangle_134" data-name="Rectangle 134" width="3.343" height="2.126" transform="translate(11.351 9.933)" fill="#fff"/>
  <g id="Group_133" data-name="Group 133">
    <g id="Group_132" data-name="Group 132" clip-path="url(#clip-path)">
      <path id="Path_177" data-name="Path 177" d="M11.142,0A8.225,8.225,0,0,0,4.791,13.456L0,18.245l1.5,1.5L6.346,14.9A8.223,8.223,0,1,0,11.142,0m5.63,10.576h0a6.119,6.119,0,0,1-2.4,2.814l-.016.01a6.116,6.116,0,0,1-.983.5l-.04.014a6.01,6.01,0,0,1-1.041.3c-.019,0-.038,0-.057.009a6.134,6.134,0,0,1-1.092.1h0a6.128,6.128,0,0,1-6.1-6.093h0V8.222A6.085,6.085,0,0,1,7.47,3.359l0,0A6.092,6.092,0,0,1,9.529,2.344l.1-.025a6.188,6.188,0,0,1,.626-.125c.048-.007.094-.016.142-.022a6.121,6.121,0,0,1,.746-.05h0c.037,0,.072.005.109.006a6.092,6.092,0,0,1,5.716,7.9c-.023.074-.053.144-.078.217-.039.11-.075.222-.12.33" fill="#fff"/>
    </g>
  </g>
</svg>
