<svg id="kilitle" xmlns="http://www.w3.org/2000/svg" xmlns:xlink="http://www.w3.org/1999/xlink" width="30" height="30" viewBox="0 0 30 30">
  <defs>
    <clipPath id="clip-path">
      <rect id="Rectangle_137" data-name="Rectangle 137" width="30" height="30" fill="none"/>
    </clipPath>
  </defs>
  <g id="Group_137" data-name="Group 137" clip-path="url(#clip-path)">
    <path id="Path_180" data-name="Path 180" d="M23.409,14.1a1.432,1.432,0,0,0-.379-1.484L17.956,7.546a1.433,1.433,0,0,0-1.484-.378,1.264,1.264,0,0,0-.843,1.059l-.3,2.545L10.623,14.6a1.284,1.284,0,0,0-.466.93,1.49,1.49,0,0,0,.45,1.118l.9.9-3.51,5.033,5.033-3.511.9.9a1.49,1.49,0,0,0,1.118.449,1.284,1.284,0,0,0,.931-.467l3.831-4.708,2.544-.3a1.268,1.268,0,0,0,1.06-.844m-8.531,3.709L12.764,15.7l4.255-3.462a1.275,1.275,0,0,0,.457-.843L17.6,10.3l2.671,2.671L19.18,13.1a1.27,1.27,0,0,0-.842.459Z" fill="#004295"/>
    <path id="Path_181" data-name="Path 181" d="M27,30H3a3,3,0,0,1-3-3V3A3,3,0,0,1,3,0H27a3,3,0,0,1,3,3V27a3,3,0,0,1-3,3M3,2A1,1,0,0,0,2,3V27a1,1,0,0,0,1,1H27a1,1,0,0,0,1-1V3a1,1,0,0,0-1-1Z" fill="#004295"/>
  </g>
</svg>
