<svg xmlns="http://www.w3.org/2000/svg" xmlns:xlink="http://www.w3.org/1999/xlink" width="30" height="30" viewBox="0 0 30 30">
  <defs>
    <clipPath id="clip-path">
      <rect id="Rectangle_127" data-name="Rectangle 127" width="22.08" height="12.768" transform="translate(0 0)" fill="#004ab9"/>
    </clipPath>
  </defs>
  <g id="m端steri_durumu_menu" transform="translate(-440 -1675)">
    <g id="m端steri_durumu_menu-2" data-name="m端steri_durumu_menu" transform="translate(-1292.784 637.404)">
      <g id="Group_45" data-name="Group 45">
        <path id="Path_89" data-name="Path 89" d="M1759.784,1067.6h-24a3,3,0,0,1-3-3v-24a3,3,0,0,1,3-3h24a3,3,0,0,1,3,3v24A3,3,0,0,1,1759.784,1067.6Zm-24-28a1,1,0,0,0-1,1v24a1,1,0,0,0,1,1h24a1,1,0,0,0,1-1v-24a1,1,0,0,0-1-1Z" fill="#004ab9"/>
      </g>
    </g>
    <g id="m端steri_durumu" transform="translate(443.96 1684)">
      <g id="Group_127" data-name="Group 127" clip-path="url(#clip-path)">
        <path id="Path_174" data-name="Path 174" d="M20.5,4.478a2.687,2.687,0,0,0,.39-1.381,2.72,2.72,0,1,0-5.44,0,2.694,2.694,0,0,0,.39,1.382,3.914,3.914,0,0,0-1.305,1.7,5.174,5.174,0,0,0-.776-.588,3.465,3.465,0,1,0-5.431,0,5.234,5.234,0,0,0-.777.588,3.921,3.921,0,0,0-1.3-1.7A2.715,2.715,0,1,0,1.194,3.1a2.694,2.694,0,0,0,.39,1.382A3.9,3.9,0,0,0,0,7.6c0,.485.206,1.375,1.587,1.883a6.955,6.955,0,0,0,2.326.361,7.183,7.183,0,0,0,1.975-.254c-.01.135-.041.263-.041.4,0,.579.258,1.644,1.987,2.281a9.61,9.61,0,0,0,3.206.493c2.511,0,5.193-.729,5.193-2.774,0-.137-.03-.265-.04-.4a7.392,7.392,0,0,0,1.974.254c2.414,0,3.913-.86,3.913-2.244A3.9,3.9,0,0,0,20.5,4.478M3.32,3.1a.594.594,0,1,1,.594.594A.595.595,0,0,1,3.32,3.1M2.136,7.421a1.787,1.787,0,0,1,3.556,0,5.49,5.49,0,0,1-3.556,0M17.573,3.1a.594.594,0,1,1,.594.594.6.6,0,0,1-.594-.594M9.7,3.464A1.338,1.338,0,1,1,11.04,4.8,1.34,1.34,0,0,1,9.7,3.464m1.338,7.178a5.381,5.381,0,0,1-3.067-.648,3.067,3.067,0,0,1,6.134-.043,4.992,4.992,0,0,1-3.067.691m5.349-3.221a1.787,1.787,0,0,1,3.556,0,5.49,5.49,0,0,1-3.556,0" fill="#004ab9"/>
      </g>
    </g>
  </g>
</svg>
