<?xml version="1.0" encoding="utf-8"?>
<!-- Generator: Adobe Illustrator 26.0.0, SVG Export Plug-In . SVG Version: 6.00 Build 0)  -->
<svg version="1.1" id="Layer_1" xmlns="http://www.w3.org/2000/svg" xmlns:xlink="http://www.w3.org/1999/xlink" x="0px" y="0px"
	 viewBox="0 0 242.5 242.5" style="enable-background:new 0 0 242.5 242.5;" xml:space="preserve">
<style type="text/css">
	.st0{opacity:0.2;}
	.st1{fill:#F6F7F2;}
	.st2{fill:#6B645C;}
</style>
<g class="st0">
	<path class="st1" d="M241.4,47.9c-0.9,1.6-1.4,3.4,0,4.5c0.3,0.2,0.7,0.5,1,0.7V49C242.1,48.7,241.7,48.3,241.4,47.9z"/>
	<path class="st1" d="M242.5,46.6v-0.4c0,0.1-0.1,0.1-0.1,0.2S242.4,46.5,242.5,46.6z"/>
	<path class="st1" d="M214.2,66.3c5.6,9.3,16.9,16.3,28.2,18V55c-1.2-0.7-2.3-1.5-3.3-2.4C234,60.7,223.1,63.9,214.2,66.3z"/>
	<path class="st1" d="M242.5,29.7V28c-1.6,0.5-3.2,1.1-4.7,2C239.3,29.9,240.9,29.8,242.5,29.7z"/>
	<path class="st1" d="M235.6,29.4c2.1-1.6,4.4-2.5,6.9-3.2v-1.8C239.8,25.5,237.3,26.9,235.6,29.4z"/>
	<path class="st1" d="M242.4,45.4L242.4,45.4L242.4,45.4C242.5,45.3,242.4,45.4,242.4,45.4L242.4,45.4z"/>
	<path class="st1" d="M238.3,25c1.3-0.9,2.7-1.5,4.2-2.2v-4.3c-0.1,0.3-0.2,0.5-0.3,0.8C241.2,21.4,239.7,23.2,238.3,25z"/>
	<path class="st1" d="M212.7,67.3c-1,6.1,6.1,11,10.6,13.8c3.9,2.4,7.5,4.1,11.9,5.1c1.2,0.3,3.9,0.9,7.1,1.4v-1.4
		C230.5,84.5,218.8,77.2,212.7,67.3z"/>
	<path class="st1" d="M234.3,127.2c-0.8-0.2-1.5-0.3-2.2-0.6H232c-0.1,0.6-0.3,1.2-0.5,1.9c-0.1,0.3-0.3,0.5-0.5,0.5
		c-0.1,0.3-0.3,0.6-0.7,0.6c-2.2,0.3-3.9-0.2-5.7-1.4c-0.3-0.2-0.5-0.5-0.4-0.9c0.2-0.8,0.4-1.6,0.6-2.5c-0.1,0-0.2,0-0.4,0h-0.1
		l-0.1,0.1l-0.1-0.1c-0.1,0-0.2,0-0.2,0c-0.1,0-0.2,0-0.3,0c-2-0.3-3.9-0.5-5.9-0.7c-5.7-0.5-12.5-1.1-17.9,1.2
		c-1.5,0.7-5.2,3-3.7,5.1c1.1,1.6,3.1,2.4,4.9,3.1c5.4,2,11.1,3,16.8,3.9c4.3,0.7,8.6,1.1,12.8,2.3c3.8,1.1,7.8,2.1,11.8,2.5v-12.7
		c-2.7-1-5.4-1.6-8.2-2.2L234.3,127.2z"/>
	<path class="st1" d="M242.5,214.8V213c-0.8,0.3-1.5,0.7-2.2,1.1C240.9,214.4,241.7,214.6,242.5,214.8z"/>
	<path class="st1" d="M235.9,217.2c-2.8,3-6.8,9.9-2.1,12.9c0.3,0.2,0.4,0.5,0.3,0.8c2.8-0.2,5.5,0.3,8.3,0.9v-15.2
		c-1.3-0.4-2.5-1-3.5-1.8C237.9,215.4,236.8,216.2,235.9,217.2z"/>
	<path class="st1" d="M219.3,80.6c-4.4-3.3-10.1-8.5-7.9-14.5c-2,0.9-3.7,2.3-3.7,4.4c-0.1,3,2,5.7,4,7.7
		c5.5,5.6,12.4,9.7,19.6,12.5c3.6,1.4,7.3,2.8,11.1,3.6v-4.8c-3.5-0.6-6.5-1.2-8-1.6C228.9,86.6,224,84.1,219.3,80.6z"/>
	<path class="st1" d="M230.1,17.8c-0.7,3.2,1.5,5.3,3.1,7.6c0.6-4.3,3.5-8.6,4.8-12.6c0.2-0.6,1.2-0.4,1.1,0.2
		c-0.9,4.9-4.6,9.5-4.3,14.5c1.1-1.7,2.5-3.3,3.8-5c3.2-4.3,3.4-8.8,1.8-13.5C237.3,12.5,231.1,13.4,230.1,17.8z"/>
	<path class="st1" d="M210.2,137.9c-4.8-1-11.2-2-14.9-5.6c-0.2-0.2-0.4-0.4-0.5-0.6c-0.1,2.7-0.2,5.6,2.3,7.4
		c4.3,3.1,9.4,3.5,14.4,4.1c8.6,1.1,18.1,1.5,26.2,4.5c0.8,0.3,0.4,1.7-0.5,1.5c-5.9-1.6-11.8-2.4-17.8-3.2
		c-5.3-0.7-11.1-1.1-16.3-2.5c-2.1-0.6-4.5-1.4-6.3-2.7c0.6,1.3,0.6,2.6,0.4,4.2c-0.4,3.2,0.2,6.5,4.2,6.4c1.5,0,3-0.2,4.5-0.3
		c6.3-0.2,12.9,2.9,18.8,4.7c1,0.3,0.7,1.8-0.3,1.6c-4.7-1-9.2-3-13.9-4c-3.5-0.7-6.9,0.3-10.3-0.3c-1.3-0.2-2.4-0.7-3.2-1.5
		c-0.1,1.6-0.2,3.4-0.1,5.2c0.1,0.1,0.1,0.1,0.1,0.2c2.2,7.4,10,4.4,15.3,7.2c0.8,0.4,0.4,1.8-0.5,1.5c-5-1.6-12.6-0.8-15.1-5.7
		c-0.4,3.1-0.7,6.2-1.1,9.3c4.6,3.7,9.2,6.6,14.9,8.2c4.6,1.3,9.4,1.9,13.9,3.7c0.8,0.3,0.3,1.5-0.4,1.3
		c-9.6-1.8-21.8-4.1-28.5-11.9c-0.3,2.2-0.5,4.3-0.9,6.5c0.3,0.1,0.5,0.3,0.4,0.7c-1,4.8,7.2,8,10.6,9.4c4.2,1.7,9.4,3.8,14.1,3.7
		c1,0,1.2,1.6,0.1,1.6c-5.9,0.2-12.8-2.6-17.9-5.3c-2.3-1.2-6.5-3.4-7.9-6.3c-0.7,3.3-1.5,7.2-1.3,10.7c0.1,0.5,0.1,1.1,0.2,1.6
		c0.2,1,0.4,2,0.8,2.9c0.1,0,0.2,0.1,0.2,0.1c4.1,3.4,8.4,6.6,13.3,8.8c3.5,1.6,7.1,0,9.6,3.3c0.7,0.9-0.8,1.9-1.5,1
		c-1.3-1.8-5.8-1.6-7.8-2.3c-1.6-0.5-3.1-1.6-4.6-2.4c-3.6-1.8-6.6-3.9-9.2-6.7c-0.3,0.2-0.7,0.2-1-0.2c0-0.1-0.1-0.2-0.1-0.2
		c-0.6,4.6-2.2,9.2-1,13.9c0.1,0.3,0.1,0.5,0.2,0.8c0.1,0,0.2,0,0.2,0c3.1,0.4,4.3,2.2,6.6,4.1c3.3,2.7,7.8,2.9,11.7,4.4
		c0.8,0.3,0.4,1.7-0.5,1.5c-3.4-0.9-7.6-1.5-10.5-3.4c-2.6-1.7-4.1-4.4-7.1-5.4c1.6,4.1,4.3,6.8,8.1,8.9c0.3-0.2,0.6-0.2,0.9,0
		c3.3,2.3,7.8,3.5,11.8,3.2c5.7-0.5,8.1-3.5,10.9-8.2c0.2-0.3,0.4-0.7,0.6-1c-3,0.1-7.1,0.4-9.2-1.8c-1.8-1.9-3.2-0.5-5.1-0.9
		c-2-0.4-3.7-0.9-5.5-1.9c-0.7-0.4-0.2-1.2,0.5-1c3,1,4.7,0.8,7.7,0.6c0.9-0.1,1.5-0.1,2.3,0.6c3.2,3,6.4,2.3,10.3,2.7
		c2.5-4.6,4.6-9.3,6.6-14c-3.9,0.7-7,0.1-11-0.6c-3.9-0.7-7.7-0.9-11.1-3.2c-0.7-0.4-0.2-1.5,0.6-1.1c3.6,1.9,7,1.8,10.8,2.8
		c3.8,0.9,7.1,1.2,10.9,0.5c0.1,0,0.3,0,0.4,0.1c1.2-2.7,2.3-5.4,3.5-8.1c-2.5,2.1-5.6,3.1-9.7,2.4c-0.9-0.1-0.8-1.6,0.1-1.6
		c6.1,0.2,10.3-2.2,12.8-7.9c1.3-2.9,2.1-5.9,3.1-8.8V173c-0.2,0.1-0.3,0.1-0.5,0.2c-1.5,0.5-3.2,0.4-4.6-0.2c-3-1.3-5-0.9-7.8-0.3
		c-1.8,0.4-4.6-0.3-6.5-0.6c-2.5-0.3-5-0.6-7.4-1.4c-1-0.3-0.7-1.7,0.3-1.6c4.2,0.7,8.3,1.4,12.5,1.7c1.8,0.1,3.5-0.9,5.2-1
		c2.1-0.1,3.9,2,6.1,1.9c1-0.1,1.8-0.3,2.6-0.7v-13.5c-1.7-0.3-3.4-0.7-4.9-1.2c-1-0.3-0.7-1.6,0.3-1.5c1.5,0.2,3.1,0.5,4.6,0.8V144
		c-4.9-0.7-9.8-2.2-14.7-3.1C221.9,139.8,216,139.1,210.2,137.9z"/>
	<path class="st1" d="M210.8,80c2.9,8.5,10.9,14.6,19.3,17.6c3.8,1.4,8.1,2.4,12.4,2.4v-4c-4-0.8-7.9-2.1-11.8-3.7
		C223.9,89.6,216,85.7,210.8,80z"/>
	<path class="st1" d="M203.9,233.7c0.4-2.6,1.1-5.1,2-7.5c-0.5-0.1-0.9-0.3-1.4-0.5c-1,2.3-1.8,4.6-2.4,7
		C202.6,233.1,203.2,233.5,203.9,233.7z"/>
	<path class="st1" d="M229.4,111.6c-0.2,2.7-0.8,5.3-1.5,7.8c-0.5,2-1.1,3.9-1.6,5.9c-0.6,2.6,1.6,2.9,3.9,2.6h0.1
		c0.6-5.3,1.7-10.6,3.3-15.7C232.2,112,230.8,111.8,229.4,111.6z"/>
	<path class="st1" d="M137.5,71.2c0.8,1,1.3,2.2,1.5,3.4c2.1-0.9,4.4-1.5,6.4-2.6c2.3-1.3,0.6-4.9-0.2-7.2
		C142.5,66.7,140.4,69.8,137.5,71.2z"/>
	<path class="st1" d="M97.5,106.6c-2-3.7-5.6-4.8-9.1-3c-1.6,1.3-2.3,3.3-2,5.6c0.1,1,0.4,2.1,0.9,3.2c0.9-0.7,1.8-1.3,2.7-1.8
		c0.6-0.4,1.3,0.5,0.8,1c-0.8,0.8-1.7,1.5-2.6,2.2c0.9,1.2,2.2,2,3.7,1.9c3.1-0.2,5.7-2.6,6.2-5.4c0-0.2-0.1-0.3-0.1-0.5
		c-0.1-0.3,0-0.6,0.2-0.7C98.1,108.2,97.9,107.4,97.5,106.6z"/>
	<path class="st1" d="M98.5,113.8c0.2,0,0.4,0,0.6,0c-0.1-0.2-0.2-0.4-0.2-0.6C98.8,113.4,98.6,113.6,98.5,113.8z"/>
	<path class="st1" d="M107.2,92.7c-6.3,0.4-10.3,4.5-15.2,8.1c1.6,0.1,3.2,0.8,4.5,1.8C100.3,99.5,103.8,96.2,107.2,92.7z"/>
	<path class="st1" d="M97.4,103.5c0.7,0.7,1.3,1.6,1.8,2.6c0.6,1.3,0.8,2.7,0.6,4c0.4,1,0.7,2.1,1,3.1c2.1-1.7,4-3.5,5.9-5.4
		c0.7-0.7,4.8-3.7,4.6-4.7c-0.7-3.3-1.6-6.5-2.3-9.7C105.4,96.9,101.7,100.6,97.4,103.5z"/>
	<path class="st1" d="M136.3,70c2.1-2,4.3-4.2,6.7-5.9c-0.4-0.1-0.8-0.2-1.2-0.3c-0.7-0.2-2.6-1.3-3.2-0.6c-1.6,1.9-3.3,3.7-5.2,5.4
		C134.5,68.7,135.4,69.2,136.3,70L136.3,70z"/>
	<path class="st1" d="M107.9,13.6c9-5,18.8-6.3,28.6-9.1c0.1,0,0.2-0.1,0.3-0.2c0.9-0.1,1.8-0.4,2.6-0.6l0.2-0.1
		c8.1,4.4,16.2,13.1,20.1,21.6c-10,5.2-20.7,8.6-31.7,10.5c0-0.3-0.2-0.5-0.5-0.7C119.7,30.2,111.1,22.3,107.9,13.6z M121.7,22.9
		c0.1,0.2,0.2,0.4,0.4,0.5c5.2,2,22.6,4.4,23-4.7c0.2-5.1-6.2-5.8-10-5.9c-6.1-0.1-11.7,3.8-13.6,9.6
		C121.4,22.7,121.5,22.8,121.7,22.9z"/>
	<path class="st1" d="M124,49.9c0.8-4.3,1.6-8.6,2.8-12.8c-0.1-0.1-0.1-0.1-0.2-0.2h-0.1c-4.7-2.9-8.9-6.8-12.6-10.9
		c-2.8-3.1-6.2-6.8-7.2-11.1c-1.1,4.3-2.6,8.6-3.7,12.9l0,0C111.5,33,117.6,42.3,124,49.9z"/>
	<path class="st1" d="M115.1,89.1c-1.7-1.4-4-2.6-6.3-2.4c-2.8,0.2-4.1,2.4-5.1,4.8c1.7-0.4,3.5-0.7,5.5-0.5c0.6,0,1,0.7,0.8,1.2
		c1.4,1.7,2,4.2,2.5,6.6c2.2-0.7,5.1-1.9,5.3-4.4C118,92.3,116.7,90.4,115.1,89.1z"/>
	<path class="st1" d="M44,166c4-3,9-3.6,13.7-5.3c1.1-0.4,1.9,1.2,0.8,1.6c-4.1,1.5-8.6,2-12.3,4.3c3.7-0.2,7.5-0.4,10.9-1.7
		c5-2,5.3-6.2,4.1-10.6C57.2,160.6,48.2,159.8,44,166z"/>
	<path class="st1" d="M24.8,122c0.1,0.3,0.2,0.9,0.3,1.5c0.3-0.3,0.7-0.5,1.1-0.8C25.7,122.6,25.2,122.3,24.8,122z"/>
	<path class="st1" d="M62.5,121.4L62.5,121.4c-0.6-1.2-1.5-2.2-2.7-2.9c-6.8,4.4-16.6,5.5-24.5,5.7c-1.8,0-4.4-0.1-6.8-0.8
		c-1.6,0.8-3,1.6-3,1.8c0,0.1,0,0.3,0,0.4s0,0.3,0.1,0.4C36.7,132.8,53.2,129.7,62.5,121.4z"/>
	<path class="st1" d="M48.7,145.6c-2.9,3.5-9.2,4.4-10.2,8.8c-0.7,3.2,1.5,5.3,3.1,7.6c0.6-4.3,3.5-8.6,4.8-12.6
		c0.2-0.6,1.2-0.4,1.1,0.2c-0.9,4.9-4.6,9.5-4.3,14.5c1.1-1.7,2.5-3.3,3.8-5C50.1,154.8,50.3,150.4,48.7,145.6z"/>
	<path class="st1" d="M42.3,117.8c-3.2,0.8-6.4,2.2-9.4,3.7c-0.2,0.1-1.1,0.5-2.1,1c1.1,0.1,2.1,0.1,3.1,0.1
		c6.4-0.1,13.1-1.1,19.2-2.9c0.8-0.2,2.6-1,4.4-2C52.7,116.1,45.8,116.9,42.3,117.8z"/>
	<path class="st1" d="M61.2,117.4c0.6,0.4,1.1,0.9,1.5,1.4c-0.1-1.3-0.1-2.3-0.1-2.9C62.2,116.5,61.7,117,61.2,117.4z"/>
	<path class="st1" d="M25.7,120.8c0.6,0.4,1.3,0.8,2,1c4.8-2.7,12.7-5.4,14.3-5.8c4-0.8,12.2-1.8,17.4,0.3c2.5-1.8,4.2-4,1.5-5.8
		c-5.3-3.3-11.9-2.1-17.6-0.8c-0.3,0.1-0.6,0-0.7-0.2c-4.5,0.8-8.9,1.8-12.9,3.9C27.8,114.5,22.2,118.4,25.7,120.8z"/>
	<path class="st1" d="M129.9,70.2c-2.7,0.8-3.9,3.1-5.2,5.4c0.9,0.1,1.8,0.2,2.7,0.1c0.2,0,0.4,0,0.6,0.1c0.3-0.1,0.5,0,0.7,0.2
		c0.1,0.1,0.2,0.1,0.2,0.3c0.9,1.8,1.4,3.7,1.9,5.6c2.4-1,5.4-2.5,6.1-5.3c0.5-1.9-0.2-3.7-1.6-5C133.9,70.3,131.8,69.6,129.9,70.2z
		"/>
	<path class="st1" d="M121.9,83c-1.7,1.6-3.3,3.7-5.3,5c1.7,1.5,3.2,3.7,3.2,6c3.5-2.4,6.7-5.2,10.2-7.6c-0.7-2.9-1.3-5.9-2.3-8.8
		C125.8,79.4,123.8,81.1,121.9,83z"/>
	<path class="st1" d="M121.4,81.1c1.4-1.3,2.8-2.6,4.3-3.8c-2.3-0.3-4.5-1.2-6.3,0.4c-2.7,2.5-5.4,4.9-7.9,7.6
		c1.3,0.3,2.7,0.8,3.9,1.7C117,84.8,119.4,83,121.4,81.1z"/>
	<path class="st1" d="M53.3,197.6c3,1.9,6.6-3.4,8.6-1.3c1-1.9,2.7-3,4.8-3.7c-0.9-0.6-1.9-1.2-3.1-1.7c-6.7-2.6-13.7-1.3-19,3.4
		c2.2,0.4,5.4,1.7,8,3.4C52.7,197.5,53,197.4,53.3,197.6z"/>
	<path class="st1" d="M48.3,203.4c1.1,0.8,2.5,1.8,3.9,1.8c1.1,0,3-1,2.4-2.4c-1.5-3.4-7-6.6-10.8-7.4
		C43.4,198.3,46,201.6,48.3,203.4z"/>
	<path class="st1" d="M40.3,210.1c0.6,0.4,1.2,0.9,1.7,0.6c0.7-0.3,1.4-0.6,2.2-0.5c0.9,0.1,1.7,0.4,2.5,0.7
		c-0.6-1.7,0.1-3.6,1.7-5.3c-3.1-2-5.8-5.7-6.4-8.8c-1.5,1.7-2.9,3.7-4,5.7C40.4,204.5,40.8,207.3,40.3,210.1z"/>
	<path class="st1" d="M48.1,216.5c0.4-1,0.5-2,0.2-3c-1.8-0.8-4.2-2.2-5.8-0.8c-0.2,0.2-0.6,0.3-0.9,0.2c-1-0.4-2-0.9-2.8-1.6
		c-0.4-0.3-0.4-0.6-0.3-1.1c0.5-2.3,0.1-4.1-1.2-5.7c-0.8,1.8-1.2,3.8-1.3,5.7c-0.2,6.1,4.2,9,9.3,10c-0.2-0.3-0.2-0.8,0.2-1
		C46.5,218.4,47.6,217.8,48.1,216.5z"/>
	<path class="st1" d="M63,198.1c0.1,0.1,0.2,0.2,0.2,0.4c0.2,1.7,1.1,3.1,1.8,4.7c0.4,0.8,0.8,1.7,0.9,2.6c1.3,0.6,2.2,1.8,2.9,3.1
		c2.4-5.2,3-11-0.6-14.9h-0.1C65.7,194.6,63.8,195.7,63,198.1z"/>
	<path class="st1" d="M125.6,19.5c-0.3-0.1-0.5-0.3-0.4-0.6c-0.5,0.6-1,1.2-1.5,1.8c0.7-0.4,1.5-0.8,2.2-1.3
		C125.8,19.5,125.7,19.5,125.6,19.5z"/>
	<path class="st1" d="M64,205.2c0-0.1-0.1-0.3-0.1-0.4c-0.3-0.7-0.7-1.4-1-2.2c-0.5-1.1-0.9-2.2-1-3.4c-0.3-0.1-0.6-0.3-0.7-0.6
		c-0.4-1.4-0.8-1.4-1.9-0.7c-0.7,0.4-1.4,0.9-2.1,1.2c-0.9,0.4-1.8,0.5-2.6,0.3c1.6,1.6,2.4,3.3,1.7,5
		C58.8,205.7,61.3,204.9,64,205.2z"/>
	<path class="st1" d="M60.7,206.9c-1.9,0-3.5-0.4-4.9-1.5c-1.6,2.1-3.9,2.1-6.1,1c0,0.1-0.1,0.2-0.1,0.2c-1.6,2.1-1.9,4,0.4,5.6
		c3.5,0.6,6.3,3.1,7.7,6.3c1.8-0.5,3.6-1,5.5-1.5c1.8-1.7,3.5-4,4.9-6.4c-0.1-0.1-0.2-0.2-0.3-0.3C65.9,206.9,64,206.9,60.7,206.9z"
		/>
	<path class="st1" d="M108.2,229.9c0.1-0.2,0.3-0.3,0.4-0.3c0.7-1.7,0.3-3.9-0.5-6c-0.7,4.7-10.4,3.1-13.9,2.5
		c-1.4-0.2-3.4-0.9-4.9-0.6c-4.1,0.9-5.2,3.9-5.9,7.6c-0.6,2.7-1.2,5.3-3.4,6.6c0.5,0.9,0.9,1.8,1.2,2.7H96
		C100.4,238.5,105.1,234.9,108.2,229.9z"/>
	<path class="st1" d="M125.7,51.2c8.8-7.9,22-6.9,32.3-11.8c-0.1-4.2,1.2-8.2,2-12.3c-9.6,5.1-20.8,9.3-31.7,10
		C127.7,41.8,126.6,46.5,125.7,51.2z"/>
	<path class="st1" d="M78.2,240.4c0.3,0.6,0.6,1.3,0.8,2.1h0.3C79,241.7,78.6,241.1,78.2,240.4L78.2,240.4z"/>
	<path class="st1" d="M106.7,220.9c-0.9-1.5-1.9-2.7-2.8-3.6c-4.6-4.4-12.6-4.1-18.6-3.4c-0.1,0.1-0.2,0.2-0.4,0.2
		c-13,2.9-25.8,5.5-38,10.3c4.7-0.4,9.4,0,13.4,0.3c0.4,0,0.5,0.3,0.5,0.5c0.1,0.1,0.1,0.1,0.2,0.2c0.9,1.9,2.8,1.6,4.4,1.1
		c0.6-0.2,1.2,0.5,1,1.1c-0.1,0.3-0.1,0.5-0.2,0.7l0,0c5.4,1.6,9.8,5.2,12.7,9.8c3-1.8,2.5-7.3,4.1-10.2c1.3-2.4,3.9-4.4,6.8-4.2
		C94.2,223.9,107.4,228.6,106.7,220.9L106.7,220.9z"/>
	<path class="st1" d="M128.9,19.7c0.5,1.2-0.2,2.5-1.1,3.4l0,0c4.7,0.8,10.2,0.9,13.5-1.6c5.7-4.2-2.4-7-6.2-7s-6.9,1.4-9.4,3.8
		C127,18.2,128.4,18.5,128.9,19.7z"/>
	<path class="st1" d="M71.1,232.5c0.3,0.9,0.2,1.9-0.2,2.9c2.5,0.2,4.8,1.5,6.4,3.5v-0.1C75.7,236.4,73.6,234.2,71.1,232.5z"/>
	<path class="st1" d="M52,228.3c-0.1,0.1-0.3,0.3-0.6,0.3c-3.1,0.2-17.6,6.5-14.4,11.2c3.2,4.6,9.5,2,12.7-1.1
		c2.7-2.7,5.1-5.6,7.3-8.7C55.3,229.5,53.6,229.1,52,228.3z"/>
	<path class="st1" d="M68.5,232.4c-0.8-0.3-1.6-0.5-2.3-0.8c-1.4-0.7-1.8-1.8-1.6-3.1c-1.6,0.2-3.2-0.1-4.3-1.3
		c-0.7,0.6-1.4,1-2.3,1.4c0.2,0.1,0.4,0.1,0.6,0.2c0.5,0.1,0.8,0.8,0.5,1.3c-0.7,1.1-1.4,2.3-2.3,3.5c2-0.1,4.2-0.7,6.1,0.3
		c1.6,0.9,0.9,2.8,2.8,3c0.1-0.1,0.1-0.2,0.3-0.3c1-0.6,2.1-0.9,3.2-1C69.6,234.2,70,233,68.5,232.4z"/>
	<path class="st1" d="M51,220.5h0.2c1.5-0.5,3.1-1,4.6-1.5c-1.1-2.5-3.1-4.3-5.6-5.4c-0.1,0.1-0.2,0.2-0.4,0.2
		c0.9,2.4-0.6,5.6-3,6.5C48.2,220.5,49.6,220.6,51,220.5z"/>
	<path class="st1" d="M123.9,22.2c0.8,0.2,1.6,0.4,2.5,0.6c-0.1-0.3-0.1-0.6,0.2-0.9c0.3-0.3,0.7-0.7,0.8-1.2l-0.2,0.1
		C126.1,21.2,125,21.7,123.9,22.2z"/>
	<path class="st1" d="M214.7,27.6c0.5-1.2,1-2.1,1.2-2.6c-0.6,0.3-1.3,0.5-1.9,0.7C214.4,26.2,214.6,26.9,214.7,27.6z"/>
	<path class="st1" d="M137.2,125.7c0.6,1.7,1.2,2.8,3.5,3.4c2.1,0.5,4.3,1.3,6.6,1.7c-1.1-1.7-1.8-3.8-2.1-5.5
		C142.5,125.9,139.8,126.1,137.2,125.7z"/>
	<path class="st1" d="M182.8,100.7c-1.2,2.3,0.2,3.8-0.5,6.2c-0.5,1.9-2.7,1.3-2.8,4c-0.1,1.4-0.2,2.8-1.3,3.7
		c-1.6,1.3-2.7,1.6-3.1,3.8c-0.3,1.6-3.8,3.4-5.1,4.1c-1.7,0.9-3.8,1.3-5.7,1.5c-5.1,0.4-10.3-0.3-15.4,0c-0.8,0.3-1.6,0.6-2.5,0.9
		c0.4,2.2,1.3,4.7,3.1,6c0.1,0,0.3,0,0.4,0c0.5,0,0.7,0.2,0.8,0.6c0.2,0.1,0.4,0.1,0.6,0.1c2.3,0.3,3.3-2,5.4-2
		c1.4,0,2.4,0.6,3.2,1.6c2.3,2.9,3.6,0.8,5.4-0.6c2.2-1.6,8.5,3.1,9.5-1.4c0.2-0.8,0.6-2.5,1.7-2.7c0.7-0.1,1-0.2,1.8,0.1
		c2.7,1.1,4.5-2,3.3-4.7c-0.3-0.6-0.1-1.1,0.6-1.4c5.4-1.9,2.5-5,2.6-9c0.1-2,1-3.1,2.5-3.8C186,105.4,185.2,101.8,182.8,100.7z"/>
	<path class="st1" d="M130,109.8c4.6-7.3,13.2-11.2,20.9-14.2c4.2-1.7,8.6-3.1,13-4c3.4-0.8,7.8-1.5,11,0.4
		c-0.1,0.1-0.1,0.2-0.1,0.4c-0.2,1.9-1.8,3.8-3.5,5.6c-11.6,0.5-22.9,4.2-34,7.1c-0.6,0.2-0.3,1,0.2,0.9c10.8-1.6,21.1-5.5,32.1-6.2
		c-0.5,0.6-1,1.1-1.4,1.6c-1.7,2.2-3.2,4.4-4.7,6.7c-3.4,5.1-6.5,9.3-11.8,12.4c-1.9,1.1-3.9,2-5.9,2.6c-0.2-0.1-0.5,0-0.7,0.2
		c-3.2,0.8-6.6,1-9.8,0.1C128.6,121.7,126.5,115.4,130,109.8z M150.5,114.2c-4.2,0.6-8.4,1.2-12.6,1.9c-0.6,0.1-0.5,1.1,0.1,1.1
		c4.2,0.1,8.5-0.8,12.7-1.3C151.9,115.7,151.7,114.1,150.5,114.2z M133.7,112.9c7-2.1,14.4-2.8,21.5-4.5c0.7-0.2,0.5-1.3-0.2-1.2
		c-7.3,0.9-14.8,1.9-21.8,4.1C132.1,111.5,132.6,113.2,133.7,112.9z"/>
	<path class="st1" d="M182.6,127.3c-0.9,0.8-1.7,1.6-2.9,1.6c-1.7,0-2.5-1.1-3.2,1.5c-0.4,1.4-2.8,2.8-4.2,2.9
		c-0.6,0-1.2-0.5-1.7-0.6c-1.9-0.3-4.3-0.3-5.7,1c-1.3,1.2-3.6,2-5,0.3c-0.9-1.1-2.1-3.9-4.1-2.5c-0.9,0.6-1.6,1.2-2.6,1.6
		c-1.6,0.7-3.1,0.3-4.3-0.6c-3.4,0-7.4-1.3-10.4-2.5c-1.9-0.8-2.5-2.8-2.8-4.7c-0.7-0.2-1.3-0.4-2-0.7c-2.8-1.3-5.7-3.6-6.9-6.6
		c-0.7,15.2,16,20.2,28.9,20c10.2-0.1,30.5-3.9,30-17.4c-0.6,0.5-1.4,0.9-2.2,1.2C184.3,123.9,184.2,125.8,182.6,127.3z"/>
	<path class="st1" d="M163.7,111.4c-3.1,4.7-6.6,8.2-11.4,10.9c3.2-0.1,6.5,0.2,9.7,0c3-0.2,6.3-0.6,8.9-2.5
		c2.1-1.5,1.9-2.8,2.9-4.8c0.3-0.5,1.1-1,1.6-1.2c1.6-0.7,2.1-2.3,2.2-3.9c0.1-0.9,0.4-2,1.2-2.5c2.1-1.4,0.9-1.9,1.2-4
		c0.2-1.6,0.4-2.8,1.2-4.1c-0.8-2.2-3.4-3.4-5.3-4.2c-0.1,0-0.2-0.1-0.2-0.2c-0.9,1.7-2.3,3-3.6,4.6
		C169.1,103.3,166.4,107.4,163.7,111.4z"/>
	<path class="st1" d="M178.5,186.8c-2.7,4.1-2.7,9.7-6,13.5c-3.2,3.7-7.3,5.2-12.2,5.4l0,0c-0.5,4.6-1.5,9.7,1.8,13.4l0.1,0.1
		c8.5,0.4,15.4-8.6,16.7-16.2c1-5.4,1.4-10.9,5.2-14.8C182.3,188.2,180.3,187.4,178.5,186.8z"/>
	<path class="st1" d="M180.4,185.9c1.5,0.4,3.1,0.8,4.5,0.3C183.5,185.6,181.9,185.6,180.4,185.9z"/>
	<path class="st1" d="M213.4,29.7L213.4,29.7c0.1-1.4-0.4-2.6-1.1-3.8c-8.1,0.8-17.3-2.8-24.4-6.2c-1.6-0.8-3.9-2.2-5.7-3.8
		c-1.8,0-3.4,0-3.5,0.3c0,0.1-0.1,0.2-0.2,0.3c0,0.1-0.1,0.3-0.1,0.4C185.2,27.9,201.3,32.8,213.4,29.7z"/>
	<path class="st1" d="M186.2,47.2c0.4-0.4,1.2,0.2,0.8,0.7c-3.1,3.9-8.4,6.3-10.5,10.9c1.8-1.1,3.7-1.8,5.6-2.7
		c4.8-2.4,7-6.2,7.8-11.2c-4.2,1.8-10.2-0.3-13.1,3.1c-2.1,2.5-1.1,5.4-0.7,8.2C178.6,52.6,183.2,50.2,186.2,47.2z"/>
	<path class="st1" d="M212.9,31.8c-5.1,12-14.4,34.7-16.8,38.4c-5.5,3.5-12.1,2.1-18-0.3c-5.4-2.2-11.8-6.3-13.4-12.3
		c1.8-4.1,9.4-27.4,13.1-38.8c3.2,5.6,10,9.1,15.8,11.3C198.9,32.1,207.2,34.2,212.9,31.8z M199.1,56.3c0.1-0.8-0.9-1.2-1.5-0.7
		c-4.7,4.5-11,1.8-16.8,2.5c2.1-0.9,4.3-1.8,6.1-3.3c3.4-2.8,4.5-7.3,4.9-11.5c0.1-0.8-0.9-1-1.4-0.6c-4.3,3.4-10.4,0.3-14.7,4.1
		c-3.7,3.2-0.6,7.8-0.8,11.7c-0.2,0.6-0.4,1.2-0.5,1.9c-0.3,0.3-0.5,0.5-0.8,0.8c-0.2,0.3-0.1,0.6,0,0.8s0.2,0.3,0.4,0.3
		c0.1,0.2,0.3,0.5,0.6,0.6c5.1,2,10.7,5.3,16.4,4.8C196.8,67.2,198.4,61.1,199.1,56.3z"/>
	<path class="st1" d="M176.4,60.8c4.9-0.9,9.6,1,14.6,1.6c1.2,0.2,1.1,2-0.1,1.8c-4.4-0.6-8.5-2.2-12.9-1.9
		c3.4,1.5,6.9,3.1,10.4,3.5c5.4,0.6,7.5-3.1,8.5-7.5C190.7,62.1,183.1,57.2,176.4,60.8z"/>
	<path class="st1" d="M179.6,12.9c-0.1,0.3-0.2,0.8-0.5,1.5c0.4-0.1,0.8-0.2,1.3-0.2C180.2,13.8,179.9,13.4,179.6,12.9z"/>
	<path class="st1" d="M187.1,16.1c-0.3,0-1.2-0.1-2.4-0.1c0.9,0.6,1.8,1.1,2.7,1.5c5.7,2.9,12.1,5,18.4,6.3c0.8,0.2,2.8,0.3,4.9,0.2
		c-3.6-3.6-10-6-13.6-6.9C193.8,16.4,190.4,16.2,187.1,16.1z"/>
	<path class="st1" d="M161.6,220.7c-0.4-0.1-0.7-0.4-0.8-0.7c-3.7-4.2-2.7-10.3-1.5-15.4c0.1-0.5,0.9-0.5,1.1-0.1
		c0.5-0.2,0.9-0.3,1.4-0.4c-1.5-4-2-8-0.6-12.1c-9.3,4.4-22.7,5.2-32,0.3c1.5,8.4-7.6,14-8.8,22.1c-1.8,11.9,8.1,19.7,19.3,20.1
		c9.8,0.3,22.5-3.7,26.9-13.4c0.1-0.3,0.3-0.6,0.4-0.9C165.3,220.7,163.5,221,161.6,220.7z"/>
	<path class="st1" d="M63,123.5c1,13,3.2,37.4,2.8,41.8c-3.3,5.7-9.8,7.4-16.1,8c-5.8,0.5-13.4-0.1-17.6-4.7
		c-0.3-4.5-4.3-28.7-6.3-40.5c5.5,3.5,13,3.5,19.2,2.8C50.7,130.2,59,128.3,63,123.5z M62,151.6c-0.3-0.7-1.4-0.6-1.6,0.1
		c-2.1,6.2-9,6.7-13.8,9.9c1.4-1.8,3-3.6,3.9-5.7c1.8-4,0.6-8.6-0.9-12.5c-0.3-0.7-1.2-0.5-1.5,0.1c-2.2,5-9.1,5-11.2,10.4
		c-1.8,4.6,3.1,7.1,4.7,10.7c0.1,0.6,0.2,1.3,0.4,1.9c-0.1,0.4-0.2,0.7-0.3,1.1c-0.1,0.3,0.1,0.6,0.4,0.7c0.1,0.1,0.4,0.2,0.5,0.1
		c0.2,0.2,0.5,0.3,0.8,0.3c5.5-0.6,11.9-0.3,16.7-3.3C65,162.3,63.6,156.1,62,151.6z"/>
	<path class="st1" d="M182.3,14.1c5.5-0.2,13.8,1,15.3,1.5c3.9,1.1,11.7,4,15.3,8.3c3.1-0.4,5.6-1.6,4-4.5
		c-3.2-5.3-9.6-7.4-15.2-8.8c-0.3-0.1-0.5-0.3-0.6-0.6c-4.3-1.3-8.8-2.5-13.2-2.5c-2.1,0-8.8,0.9-6.9,4.7
		C181.3,12.9,181.8,13.5,182.3,14.1z"/>
	<path class="st1" d="M78.2,93.2c-7.4,3.9-18.3,3.7-26.6-0.7c-0.2-0.1-0.3-0.2-0.5-0.3c-3.6-2-10.7-7.1-17.3-18.8
		c-5-8.9-3.2-17.5-0.9-23.1c3-7.1,8.8-13.6,15.9-17.9c4.4-2.6,9.7-4.1,15.3-4.3c0.1,0,0.2,0,0.3-0.1c7.1,0.7,13.7,2.7,19.6,5.8
		c1.3,0.7,2.5,1.4,3.7,2.2c6.7,4.3,14,12.3,14.3,21.7c0.3,7.1-4.2,13.6-8.5,19.2c-0.6,0.8-1.1,1.5-1.7,2.3
		C88.2,84.3,83.9,90.1,78.2,93.2z M83.2,78.5c0.6-0.2,1.3-0.3,1.8-0.7c1-0.6,1.5-1.8,2-3c0.3-0.7,0.6-1.3,1-1.8
		c0.6-0.9,1.6-1.6,2.5-2.2c0.7-0.5,1.4-1,2-1.6c1.4-1.4,2-3.3,2.6-5.1c2.3-7.5-2.5-14.4-6.3-19c-2.5-3-5.4-4.8-9-6.7
		c-0.5-0.3-1.1-0.6-1.6-0.8c-1.6-0.8-2.9-1.2-4.5-1.2c-0.4,0-0.7,0-1.1,0c-0.8,0-1.6,0-2.5-0.2c-0.3-0.1-0.7-0.2-1.1-0.4
		c-0.3-0.2-0.6-0.4-0.9-0.5c-0.5-0.4-1.2-0.7-1.7-0.9c-3.1-1-5.5,0.8-7.8,2.5c-2,1.5-4.1,3-6.6,2.8c-0.3,0-0.7,0.1-0.8,0.4
		c-2.2,0.3-3.9,1.2-4.8,2.8c-0.5,0.7-0.8,1.5-1.2,2.3c-0.7,1.5-1.3,2.8-2.6,3.9c-1.2,1-2.3,2.1-2.7,3.7c-0.2,0.9-0.3,1.8-0.3,2.7
		c-0.1,1.2-0.1,2.5-0.6,3.7c-0.3,0.7-0.7,1.3-1,1.9c-0.5,0.7-0.9,1.5-1.2,2.3c-0.3,0.9,0,1.9,0.8,3c0.3,0.4,0.6,0.7,0.9,0.9
		c0.5,0.4,0.9,0.7,1.1,2.6c0,0.4,0,0.8,0,1.2c0,0.6-0.1,1.3,0.1,1.9c0.3,1.1,0.8,2.4,2,3c2.2,1.3,3,2.9,3.9,5c0.5,1.2,1.8,2.3,4,3.5
		l0,0c0.8,0.4,1.5,0.8,2.2,1.1c0.4,0.2,0.8,0.4,1.1,0.5c0.1,0.1,0.3,0.2,0.5,0.2c1.5,0.8,4,2.1,5.2,0.8c0.5-0.5,0.7-1,0.9-1.6
		c0.1-0.2,0.1-0.4,0.2-0.5c0.1-0.3,0.4-0.6,0.7-0.7c1.2-0.5,3.5,0.5,4.9,1.1c0.4,0.2,0.8,0.3,1,0.4c0.5,0.2,2.3,0.7,3.6,0.3
		c0.6-0.2,1.3-0.7,1.9-1.2c1-0.7,2-1.5,2.9-1.4c3.1,0.5,4.4,0.4,5.8-2.9C81,79.1,82.1,78.8,83.2,78.5z"/>
	<path class="st1" d="M101.9,145.8c-0.2-0.2-0.2-0.5-0.1-0.7c-0.8,0.2-1.5,0.4-2.3,0.7c0.9,0.1,1.7,0.1,2.6,0.2L101.9,145.8z"/>
	<path class="st1" d="M104.6,147.8c-0.3,1.3-1.6,2-2.7,2.3l0,0c3.5,3.3,8.1,6.3,12.2,6.1c7.1-0.4,1.8-7.2-1.4-9.2
		c-3.2-2-6.6-2.6-10-2C103.8,145.5,104.8,146.5,104.6,147.8z"/>
	<path class="st1" d="M101.4,148.4c0.4-0.1,1-0.2,1.3-0.5h-0.2c-1.1-0.3-2.3-0.4-3.5-0.6c0.5,0.6,1.1,1.2,1.7,1.9
		C100.8,148.8,101,148.5,101.4,148.4z"/>
	<path class="st1" d="M85.4,74c-0.7,1.4-1.4,2.6-3,2.9h-0.1c-0.5,0.1-1.2,0.2-1.6,0.5c-0.8,0.6-1.3,1.1-1.8,2.1
		c-0.1,0.3-0.2,0.5-0.3,0.8c-0.4,1-0.7,1.9-2.6,1.4c-0.2,0-0.3-0.1-0.5-0.1c-0.4-0.1-0.9-0.3-1.3-0.2c-0.5,0.1-1.1,0.1-1.6,0.4
		c-0.1-0.2-0.1-0.5-0.1-0.8c0-0.5-0.1-1.1-0.6-1.5l-0.1-0.1c-0.4-0.4-0.9-0.7-1.4-0.8c-0.4-0.1-0.7-0.2-1.1-0.4
		c-0.9-0.5-1.6-1.3-2.2-2.2c-0.6-0.8-1.2-1.4-1.8-1.7c-1.3-0.7-2.7-0.4-4.6,1c-0.2,0.1-0.3,0.3-0.2,0.5c0,0.2,0.1,0.4,0.3,0.5
		s0.4,0.1,0.5,0c1.4-0.9,2.4-1.2,3.2-0.8c0.5,0.3,0.9,0.9,1.4,1.5c0.5,0.8,1.2,1.8,2.3,2.4c0.2,0.1,0.5,0.2,0.7,0.3
		c0.3,0.1,0.5,0.2,0.8,0.4c0.7,0.4,1.4,0.9,1.4,1.9c0,0.3,0.1,0.6,0.4,0.9c-2.2,1.8-4,1.2-6.6,0.2c-1.3-0.5-2.5-0.9-3.8-0.8
		c0.3-0.4,0.5-0.9,0.7-1.3s0.4-0.8,0.7-1.2c0.1-0.1,0.1-0.3,0.1-0.4c0-0.2-0.2-0.3-0.3-0.4c-0.2-0.1-0.5-0.1-0.7,0.1
		c-0.7,0.8-1.2,1.7-1.8,2.6c-0.2,0.3-0.4,0.6-0.6,0.9c-0.1,0.2-0.1,0.4-0.1,0.5c-0.4,0.4-0.7,0.9-0.8,1.3c-0.2,0.5-0.5,0.8-0.9,1
		c-0.8,0.3-1.8-0.3-2.8-0.7c-0.2-0.1-0.4-0.2-0.6-0.3c-0.2-0.1-0.3-0.2-0.5-0.3L53,84l-0.2-0.1c0-0.1-0.1-0.3-0.2-0.4l-0.2-0.2
		c-0.4-0.4-0.7-0.6-0.2-1.1c0.3-0.3,0.6-0.6,0.9-0.8c0.2-0.2,0.3-0.3,0.5-0.5c0.9-0.8,1.3-1.7,1.2-2.6c0-1.2-1.1-1.9-1.6-2.1
		L53,76.1c-0.3-0.2-0.6-0.3-1-0.3c-0.2-0.1-0.4-0.1-0.7-0.2c-1.1-0.4-0.9-1.7-0.8-2.7v-0.1c0-0.3-0.1-0.5-0.3-0.6s-0.3-0.1-0.5,0
		s-0.3,0.2-0.3,0.4c-0.4,1.3-0.6,2.9,0.5,3.9c0.3,0.2,0.8,0.5,1.3,0.7c0.3,0.1,0.6,0.2,0.9,0.4c0.7,0.4,0.9,0.8,0.6,1.5
		c-0.3,0.6-0.8,1-1.3,1.5c-0.5,0.4-1,0.9-1.3,1.4c-0.1,0.2-0.2,0.4-0.2,0.6l-0.1-0.1c-0.2-0.1-0.3-0.2-0.5-0.3
		c-2-1.2-2.4-2.4-3.1-4.3L46,77.4c-0.2-0.6-1.1-1.5-1.7-1.9c-0.3-0.1-0.5-0.3-0.8-0.4c-1.3-0.7-2.4-1.2-2.6-3.5c0-0.5,0-1,0-1.4
		c0-0.5,0-1,0-1.5c-0.1-0.7-0.5-1.8-1-2.3C38,64.2,39,62.5,40,60.7c0.3-0.5,0.6-1.1,0.8-1.6c0.4-1,0.4-2.1,0.5-3.1v-0.3
		c0-0.7,0.1-1.3,0.2-1.9l0.2,0.1c0.9,0.5,2.1,0.1,2.8-0.5c0.3-0.2,0.6-0.5,0.8-0.7c0.9-0.8,1.7-1.5,3-1.1c0.3,0.1,0.6-0.1,0.7-0.4
		c0.1-0.3,0.1-0.7-0.3-0.9c-1.2-0.7-2.5-0.4-3.9,0.7c-0.2,0.2-0.5,0.4-0.7,0.6c-0.3,0.3-0.6,0.6-0.9,0.8c-0.5,0.4-0.8,0.2-1.3,0
		c0.6-1.1,1.5-2,2.6-3c0.2-0.1,0.3-0.3,0.5-0.4c0.7-0.7,1.1-1.9,1.5-3c0.1-0.3,0.2-0.6,0.3-0.8c0.9-2.2,2.6-3.5,5.3-4
		c2.6,0.1,4.7-1.3,6.8-2.7c1-0.7,1.9-1.3,2.9-1.7L61.7,37c-0.2,0.5-0.4,0.9-0.6,1.4c-0.4,1-0.7,2-1.9,2.5c-0.2,0.1-0.3,0.3-0.3,0.5
		s0.1,0.4,0.2,0.5c0.1,0,0.2,0.1,0.4,0c1.1-0.4,1.9-1.1,2.5-2.1c0.2-0.4,0.4-0.8,0.6-1.1c0.5-1,1-1.9,2.2-2.6c0.9,0,1.8,0.3,2.7,0.8
		c0.2,0.1,0.3,0.2,0.5,0.3c1,0.5,2,0.8,2.9,0.9h0.3c2.7,0.2,4.6,0.3,7.2,1.6c0.5,0.3,1.1,0.6,1.6,0.9c0.2,0.7,0,1.5-0.2,2.2
		c-0.2,1-0.5,2,0.2,3.1c0.2,0.3,0.5,0.6,0.9,0.8c0.3,0.2,0.7,0.3,1,0.4c0.2,0.1,0.5,0.1,0.7,0.2c0.1,0,0.3,0.1,0.4,0.1
		s0.2,0.1,0.3,0.1c0.4,0.2,0.3,0.6,0.2,1.2v0.2c-0.1,0.3,0.1,0.6,0.4,0.8c0.2,0.1,0.4,0.1,0.5,0.1c0.2-0.1,0.3-0.2,0.4-0.4
		c0.6-1.4,0.3-2.5-0.9-3.1c-0.4-0.2-0.8-0.4-1.4-0.5c-0.3-0.1-0.5-0.1-0.7-0.2c-1-0.5-0.9-1.6-0.7-2.7c0.1-0.5,0.1-0.9,0.1-1.4
		c3.1,1.9,5.6,4.2,7.8,7.1c2.3,3.1,3.8,6,4.5,8.9c-0.1,0-0.3,0-0.4,0c-0.2,0.1-0.3,0.2-0.4,0.4c-0.4,0.9-1.3,0.9-2.3,1
		c-1,0-2.2,0.1-2.9,1C87,60.6,87,61.7,87,62.4c0,0.4,0.1,0.7,0.2,1.1c0,0.2,0.1,0.4,0.1,0.5c0.2,1.4-0.8,1.8-2,2.2
		c-0.2,0.1-0.4,0.3-0.4,0.5c0,0.3,0.2,0.6,0.6,0.6c1.3-0.1,2.2-0.4,2.7-1c0.7-0.8,0.7-2.1,0.5-3.9c-0.1-0.7,0-1.3,0.3-1.6
		c0.5-0.5,1.4-0.5,2.3-0.5c0.2,0,0.5,0,0.7,0c0.8,0,1.5-0.4,1.9-1.1c0.6,5.1-2.2,8.4-6.4,11.9c-0.9,0.7-1.5,1.7-2,2.7L85.4,74z
		 M53.1,63.9c-0.2-0.6-0.6-1.1-1.2-1.4c-0.3-0.1-0.5-0.2-0.8-0.2c-0.4,0-0.8,0-1.2,0.1c-0.9,0.1-1.6,0.1-2.4-0.3
		c-0.2-0.1-0.4-0.3-0.6-0.4c-0.2-0.2-0.3-0.4-0.3-0.6c0-0.6,0.9-1.2,1.8-1.9c1.1-0.8,2.2-1.7,2.2-2.7c0-0.5-0.3-0.9-0.9-1.4
		c-0.3-0.2-0.7-0.1-0.8,0.1c-0.2,0.2-0.1,0.5,0.1,0.7c0.1,0.1,0.2,0.3,0.2,0.4c0,0.5-0.9,1.1-1.7,1.7c-1.3,1-2.8,2.1-2.4,3.4
		c0.3,0.8,1,1.6,2,2.1c0.5,0.3,1,0.4,1.5,0.5c0.3,0,0.6,0,0.9-0.1h0.1c0.2,0,0.4-0.1,0.6-0.1c0.9-0.4,1.3,0.2,1.4,1.6
		c-0.4,0.5-1.1,0.8-1.8,1.1c-0.6,0.3-1.1,0.5-1.6,0.9C48,67.5,48,67.7,48,68c0,0.2,0.2,0.5,0.4,0.6s0.5,0.1,0.7,0
		c0.4-0.3,0.9-0.5,1.4-0.8C52.1,67,53.8,66.1,53.1,63.9z M58.5,64c-0.1-0.2-0.2-0.3-0.3-0.5c-0.2-0.3-0.4-0.6-0.5-0.9
		c-0.3-0.8,0.4-1.5,0.9-2.2l0.1-0.2c0.1-0.1,0.2-0.3,0.2-0.5s-0.1-0.3-0.2-0.4c-0.4-0.3-0.9-0.6-1.3-0.8c-0.3-0.2-0.6,0-0.7,0.2
		c-0.1,0.2-0.1,0.6,0.2,0.7c0.2,0.1,0.3,0.2,0.5,0.3c-1,1-1.4,2.2-1,3.4c0.1,0.4,0.3,0.8,0.5,1.1c0.4,0.7,0.7,1.3,0.2,2.2
		C57,66.6,57,66.8,57,67c0.1,0.2,0.2,0.4,0.4,0.5c0.3,0.2,0.8,0.1,1.1-0.3C59.1,66.3,59.1,65.2,58.5,64z M60.9,51.6
		c2,1.1,3.8,0.5,5-1.6c0.1-0.2,0.1-0.4,0.1-0.6c-0.1-0.2-0.2-0.4-0.4-0.5l-0.2-0.1c-0.3-0.1-0.6-0.2-0.8-0.4c-0.6-0.3-0.9-0.6-1-0.9
		c-0.1-0.3,0-0.5,0.3-0.8c0.3-0.4,0.7-0.8,1.1-1.1c0.2-0.1,0.3-0.3,0.5-0.4c0.7-0.7,1.5-1.7,1.1-3c0-0.1-0.1-0.2-0.2-0.3
		c-0.2-0.1-0.4-0.1-0.6,0.1c-0.2,0.1-0.2,0.3-0.2,0.5c0.2,0.8-0.9,1.7-1.9,2.6c-0.7,0.6-1.3,1.1-1.5,1.6C61.9,47,61.8,47.5,62,48
		c0.2,0.7,0.9,1.4,2,2c-0.7,0.7-1.5,0.7-2.6,0.1c-0.8-0.4-1.5-1-2.2-1.6c-0.5-0.4-1-0.8-1.5-1.1c-1-0.6-1.9-0.7-2.8-0.4
		c-0.9,0.4-1.6,1.3-2,2.6c-0.1,0.3,0.1,0.7,0.4,0.8c0.2,0.1,0.4,0.1,0.6,0.1c0.2-0.1,0.3-0.2,0.4-0.4c0.4-1,0.8-1.4,1.2-1.6
		c0.4-0.1,0.9,0,1.6,0.4c0.6,0.4,1.2,0.8,1.8,1.3c0.4,0.4,0.9,0.7,1.4,1C60.5,51.4,60.7,51.5,60.9,51.6L60.9,51.6z M78.7,54.8
		c0.1-0.2,0.2-0.5,0.1-0.7c-0.1-0.4-0.4-0.6-0.7-0.5c-1.3,0.2-2.9,0.2-4.6,0.2c-3.6,0-7.4,0-9.3,2.2c-1,1.2-1.4,2.8-1.1,5.1l0,0
		c-1.3,1.7-1.8,3.3-1.5,4.8c0.4,1.9,2.1,3.7,5.2,5.3l0,0c1.2,0.6,2.6,1.2,4.3,1.9c0.3,0.1,0.6,0.1,0.8-0.1c0.2-0.1,0.3-0.4,0.4-0.7
		c0.3-4-1-7.1-4.1-9.4C72.6,62.5,75.7,58.9,78.7,54.8z M83.3,63.7c0-0.2-0.1-0.3-0.2-0.3c-0.1-0.1-0.3-0.1-0.4,0
		c-0.2,0.1-0.3,0.2-0.3,0.3c-0.5,1.3-1.5,1-2.7,0.6c-0.3-0.1-0.5-0.2-0.8-0.2c-0.8-0.2-2.3-0.4-2.9,0.7c-0.5,1.1-0.3,2.5,0.6,3.5
		c0.4,0.5,0.8,0.9,1.2,1.3c0.2,0.2,0.4,0.4,0.6,0.6c0.3,0.3,0.6,0.7,0.8,1c0.1,0.1,0,0.2,0,0.2c-0.1,0.2-0.9,0.3-1.3,0.3
		c-0.1,0-0.3,0-0.3,0c-0.4,0.1-0.6,0.4-0.6,0.7c0,0.3,0.1,0.5,0.3,0.6c0.1,0,0.2,0.1,0.3,0.1c1,0.1,2.4,0,3-0.7
		c0.3-0.4,0.4-0.8,0.3-1.4c-0.2-1-1-1.7-1.8-2.4c-0.8-0.7-1.6-1.4-1.7-2.3c0-0.4,0-0.6,0.2-0.7c0.4-0.4,1.6,0,2.5,0.2
		c0.5,0.1,0.8,0.3,1.1,0.3c0.8,0.1,1.4-0.1,1.8-0.6C83.3,65,83.4,64.4,83.3,63.7z M84.4,55.3c0.5-1,1.2-2.2,0.2-3.4
		c-0.1-0.2-0.4-0.3-0.6-0.5c-0.5-0.3-1.2-0.5-1.9-0.7c-0.6-0.2-1.3-0.4-1.7-0.6c-0.3-0.2-0.5-0.4-0.6-0.5c-0.1-0.7-0.5-1.2-1.1-1.5
		c-0.7-0.3-1.6-0.4-2.5-0.2c-1.6,0.4-2.8,0.5-3.4,0.1c-0.6-0.3-0.7-0.9-0.5-1.8c0.1-0.3,0.1-0.5,0.2-0.8c0.2-0.8,0.5-1.6,0.3-2.6
		c0-0.2-0.1-0.3-0.3-0.4c-0.2-0.1-0.3-0.1-0.5,0s-0.3,0.3-0.3,0.5c0,0.6-0.2,1.3-0.4,2.1c-0.4,1.8-1,3.8,0.6,4.6
		c0.5,0.2,1.1,0.4,1.9,0.3c0.6,0,1.3-0.2,1.9-0.4c0.5-0.1,0.9-0.3,1.4-0.3c0.4-0.1,0.7,0,0.8,0.1c0.3,0.2,0.3,0.5,0.4,0.8
		c0,0.3,0.1,0.7,0.3,0.9c0.1,0.1,0.3,0.2,0.4,0.3c0.5,0.3,1.1,0.4,1.8,0.5c0.6,0.1,1.3,0.3,1.7,0.5c0.5,0.3,1,0.8,0.4,2
		C82.6,55.5,83.9,56.2,84.4,55.3z"/>
	<path class="st1" d="M67.2,66.7c0.2,0.3,0.4,0.6,0.6,0.8c0.2,0.3,0.2,0.6-0.1,0.9c-0.3,0.3-0.8,0.4-1.1,0.1c-0.8-0.9-2.8-3.1-3-5.6
		c-0.6,1-0.7,1.9-0.5,2.7c0.4,1.4,1.7,2.7,4,3.9c1.2,0.6,2.4,1.1,3.4,1.5c0-3.7-1.7-6.3-5.3-8.2C65.4,64.2,66.3,65.5,67.2,66.7z"/>
	<path class="st1" d="M123.2,203.9c-1.1-2.3-4.8-7.4-6.9-2.8c-0.8,1.7-0.6,3.7-0.3,5.4c0.6,2.5,1.5,4.9,2.7,7.2
		c0.4-2.3,1.2-4.6,2.3-6.5C121.7,206.1,122.4,205,123.2,203.9z"/>
	<path class="st1" d="M95,159.9c-3.9-8.3-6.7-19.5-4.7-28.6c10.3,0.7,19.2,5,29,8c0.1,0,0.2,0,0.3,0c0.8,0.4,1.7,0.7,2.5,0.9h0.2
		c4.4,8.1,6.5,19.8,5.1,29c-11.2-1.1-22-4.1-32.3-8.5C95.1,160.4,95.1,160.1,95,159.9z M96.8,146.6c-0.1,0.2-0.1,0.4,0.1,0.7
		c3.3,4.5,16.5,16,21.8,8.6c3-4.2-2-8.3-5.2-10.4c-5.1-3.4-11.9-3.2-16.6,0.7C96.7,146.2,96.7,146.4,96.8,146.6z"/>
	<path class="st1" d="M73,55.2c-0.9,0-1.8-0.1-2.8,0c-3.5,0.1-5.2,1.4-5.9,4.6c1.4-1.9,4.4-2.3,6.2-2.4c0.1,0,0.2,0,0.3,0.1
		c0.2,0.1,0.4,0.4,0.3,0.7c0,0.2-0.2,0.4-0.4,0.4l-0.3,0.1c-1.7,0.3-4.2,0.8-5,2.3c4.7,1.2,7.8-1.4,11.1-5.8
		C75.4,55.3,74.2,55.3,73,55.2z"/>
	<path class="st1" d="M159.8,190.4c-2.2-2.7-6.1-4.6-7.6-7.8c-1.2-2.6-1.5-5.5-2.4-8.2c-2.4,1-5.3,0.4-7.8-0.4
		c-1,1.6-2.1,3.1-3.1,4.8c-0.4,0.7-1.4,4.2-2.4,4.7c-1.8,0.8-3.8,1.1-4.8,3.2c-0.6,1.3-1.1,2.6-1.7,4
		C138.5,195,151.1,194.3,159.8,190.4z"/>
	<path class="st1" d="M93.3,161.2c0-0.1-0.1-0.2-0.1-0.3v-0.1c-2.3-5-3.8-10.5-4.6-16c-0.6-4.1-1.5-9.1,0-13.2
		c-3.3,3-6.9,5.8-10.2,8.8l0,0c4.2,9,4.3,20.1,5.5,29.9C87,167.3,90,164.1,93.3,161.2z"/>
	<path class="st1" d="M153.1,168.1c-0.5-0.9-1.1-1.6-2.1-2.4c-0.2-0.1-0.3-0.3-0.3-0.4c-3.1,0.4-6.2,0.2-9.2-0.2
		c-0.9,0.8-1.7,1.6-2.3,2.5C143.8,168.2,148.6,169.2,153.1,168.1z"/>
	<path class="st1" d="M114.7,201.1c0.6-1.8,2.8-3.9,4.9-3.3c2.3,0.7,3.7,2.5,4.7,4.6c0.1-0.2,0.3-0.4,0.4-0.6
		c-0.9-2.9-2.9-5.9-6-6.7c-3.9-1-6.7,2.2-6.7,6.1c0.1,6.2,3.3,12.1,6.3,17.5c-0.1-1,0-1.9,0-2.9
		C115.3,212.1,113.3,205.5,114.7,201.1z"/>
	<path class="st1" d="M143,169.8c-0.1,0.6-0.2,1.3-0.4,1.9c-0.1,0.3-0.1,0.6-0.1,0.9c2.1,0.2,4.2,0.8,6.2,0.2c0-0.2-0.1-0.4-0.1-0.7
		c0-0.6,0-1.2,0-1.8C146.7,170.3,144.8,170.1,143,169.8z"/>
	<path class="st1" d="M126.6,171c-10.8-1-22.5-3.5-32-8.9c-3.1,3.7-6.5,7-9.9,10.4c11.6-1.8,22.2,6.2,33.6,7.7
		C120.4,176.7,123.7,174,126.6,171z"/>
	<path class="st1" d="M149.9,163.7c-0.3-1.3-0.7-2.6-1.1-4c-0.3,0.2-0.7,0.4-1.2,0.5c-1.5,0.4-2.7,0.3-3.6-0.3c0,0.1,0,0.2-0.1,0.3
		c0.2-0.3,0,0.2-0.1,0.3c-0.2,0.4-0.5,0.7-0.7,1c-0.3,0.6-0.6,1.3-0.9,2C144.9,163.9,147.4,164,149.9,163.7z"/>
	<path class="st1" d="M147.5,158.5c1.4-0.8,2.1-2.6,1.7-4.1c-0.5-1.9-2-2.1-3.7-1.7c-0.1,0-0.2,0-0.4,0c-1.1,0.8-1.7,2.1-1.5,3.6
		C143.8,158.1,145.6,159.6,147.5,158.5z"/>
	<path class="st1" d="M9.7,55.1c1.2-0.6,1.6-1.5,1.8-2.6c-2.1,1.3-5.8-0.1-7.6-1C2.6,50.8,1.2,50,0,49v4.1c1.3,0.8,2.7,1.5,4.2,1.9
		C5.8,55.5,8.1,55.9,9.7,55.1z"/>
	<path class="st1" d="M12.5,83.9c0.1,0,0.1-0.1,0.2-0.1c0.1,0,0.2,0,0.3-0.1c0.9-0.2,1.9-0.5,2.8-0.9c0.3-0.1,0.6-0.1,0.9,0.1
		c0.5-0.1,0.9-0.3,1.4-0.5c0-0.1,0-0.2,0-0.3c-4.8-7.8-9.5-17.2-6.8-26.3c-2,1.4-5,1.6-7.7,0.7C2.3,56.1,1.1,55.6,0,55v29.3
		C4.2,84.9,8.5,84.9,12.5,83.9z"/>
	<path class="st1" d="M6.2,50.6c1,0.4,5.4,1.6,4.9-0.9c-0.3-1.4-1.4-2.3-2.7-2.9C8.3,47,8.1,47,7.9,46.9c-1.5-0.7-3-1.5-4.7-1.8
		C2.3,45,0.8,44.7,0,45.3v0.1c0.2,0.2,0.2,0.4,0.1,0.6L0,46.1v0.4C1.2,48.2,5.6,50.4,6.2,50.6z"/>
	<path class="st1" d="M19.2,84.1c-1.5,0.6-2.9,1-4.5,1.3C10,86.8,5,87,0,86.3v1.4C7.9,88.9,19,89.6,19.2,84.1z"/>
	<path class="st1" d="M18.1,212.7c8.8-2.7,15.1-8.4,20.6-15.6c0.3-0.4,0.8-0.4,1.1-0.3c0.6-0.8,1.3-1.5,2-2.2
		c-4.2,1.9-8.5,3.6-12.7,5.5c-6.5,2.9-12.8,6.2-19.3,9.1c-3,1.3-6.5,2.3-9.7,3.7v1.9C5.7,216.4,12.9,214.4,18.1,212.7z"/>
	<path class="st1" d="M10.3,17.7C8,21.4,3.9,22.6,0,24.3v1.8c2.2-0.7,4.6-1.2,6.8-2c1.1-0.4,1.9,1.2,0.8,1.6c-2.5,1-5.1,1.5-7.6,2.3
		v1.7c2.1-0.2,4.2-0.6,6.2-1.4C11.2,26.3,11.4,22.1,10.3,17.7z"/>
	<path class="st1" d="M13.5,94.3c0.8-0.2,1.6-0.4,2.5-0.7c0.2-0.2,0.4-0.2,0.6-0.2c1.9-0.7,3.7-1.5,5.1-2.8c2.5-2.3,1.3-4.3-0.6-5.9
		c-0.5,6.8-12.3,6.2-21,4.8v4.8C4.4,95.2,9,95.5,13.5,94.3z"/>
	<path class="st1" d="M13.3,96.1C8.8,97,4.4,96.9,0,96v4C4.8,100.1,9.5,99.1,13.3,96.1z"/>
	<path class="st1" d="M7.6,156.6c-2.3,1.1-5,1.2-7.6,0.7v13.5C4.8,168.6,6,161.4,7.6,156.6z"/>
	<path class="st1" d="M9.1,153.2c2.3-3,4.4-6.9,4.7-10.7c-1,0.6-2.3,1-3.5,1.3c-3.5,0.8-6.9,0.7-10.3,0.3v11.4
		C3.4,156.1,6.8,156.3,9.1,153.2z"/>
	<path class="st1" d="M13.7,140.6c3.4-2.9-8.7-8.8-10.6-9.7c-1-0.5-2.1-0.9-3.2-1.3v12.7c0.6,0.1,1.2,0.1,1.8,0.1
		C5.2,142.6,10.9,143,13.7,140.6z"/>
	<path class="st1" d="M70.1,236.9c-0.2,0.1-0.4,0.1-0.6,0c-0.6,0-1.3,0.2-2,0.4c0.1,0.1,0.1,0.2,0.1,0.4c-0.2,1.7-1.1,3.2-1.4,4.9
		h10.9c-0.4-1.3-1.1-2.5-2-3.4C73.6,237.6,71.9,236.9,70.1,236.9z"/>
	<path class="st1" d="M0,172.9v2.1c0.3-0.8,0.6-1.7,0.9-2.5C0.6,172.6,0.3,172.8,0,172.9z"/>
	<path class="st1" d="M30.6,232.3c0.1,0,0.3,0,0.4,0c0.2-0.3,0.4-0.7,0.6-1c1.8-2.5,4.3-4.2,7.1-5.3c2.6-1.5,5.2-2.7,8-3.9
		c-6.2-0.6-12.4-4-12.5-11c0-2.6,0.5-5.3,1.6-7.8c-5,5.3-10.9,9.3-18.3,11.3c-4.6,1.3-12,3.3-17.5,1.7v15.2c3.3,0.7,6.7,1.6,10,1.8
		C16.9,233.9,23.7,232.7,30.6,232.3z"/>
	<path class="st1" d="M47.8,242.5h2.8c-0.1-0.5-0.3-1.1-0.6-1.5C49.4,241.5,48.6,242,47.8,242.5z"/>
	<path class="st1" d="M39.5,1.3l-0.1,0.2C36,8,51.7,10.8,54.1,5.6c-0.7-0.2-1.3-0.5-1.9-0.9c-1.2-1-1.1-3-1.5-4.7h-2.8
		c-0.5,0.3-0.9,0.5-1.4,0.7C44.5,1.5,41.8,1.8,39.5,1.3z"/>
	<path class="st1" d="M59.3,4.5c0.6-2.6,2.6-3.8,5.1-3.2c0-0.5,0-0.9,0.1-1.3H52.6c0.2,0.7,0.3,1.4,0.5,2.2
		C53.6,4.5,57,4.5,59.3,4.5z"/>
	<path class="st1" d="M80.8,14.9c4.3-3.5,8-7.6,11.9-11.7C93.7,2.1,94.9,1,96,0H81.3c0.1,0.4,0.3,0.8,0.4,1.1
		C83.1,5.2,83,10.9,80.8,14.9z"/>
	<path class="st1" d="M66.3,2.4c0.1,0.3,0,0.6-0.2,0.8c0.2,2.6,1.4,4.7,3.3,6.3c2.3-1.4,6.5-2.1,7.7-4.6c0.7-1.5,0.6-3.3,0.1-5h-11
		C66.1,0.8,66.1,1.6,66.3,2.4z"/>
	<path class="st1" d="M63.2,237.4c-0.4-0.6-0.6-1.3-1-1.9c-0.9-1.3-4.6-0.6-6-0.9c-0.1,0-0.2-0.1-0.3-0.1c-1.4,1.9-2.9,3.7-4.6,5.3
		c0.6,0.8,0.9,1.7,1.1,2.6h11.9c0.3-1.3,0.9-2.5,1.2-4C64.8,238.5,63.8,238.3,63.2,237.4z"/>
	<path class="st1" d="M67,14.1c2.2,1.4,4.7,3.1,6.5,0.5c1.2-1.8,2.2-4,2.6-6.2c-1.9,1.1-4.1,1.6-5.9,2.9c-0.2,0.1-0.4,0.2-0.5,0.2
		C69,12.2,68,13.4,67,14.1z"/>
	<path class="st1" d="M30.1,234.1c-6.3,0.4-12.6,1.7-18.9,1.3c-3.8-0.2-7.5-1-11.3-1.8v8.8h29.8C29.1,239.7,29.2,236.7,30.1,234.1z"
		/>
	<path class="st1" d="M45.4,12.1c7.7,3.6,19.3,8.9,28,6.1c7.2-2.3,8.8-11,6.2-17.4c-0.1-0.3-0.3-0.6-0.4-0.9H79
		c0.1,0.4,0.2,0.8,0.2,1.3c0.2,2.3,0,4.3-1.7,5.9c0.2,0.1,0.3,0.4,0.3,0.7c-0.2,2.7-1.7,6.8-3.8,8.6c-3.2,2.6-6.1-0.1-8.7-2
		c-0.5-0.1-1-0.3-1.1-0.3c-1.5,0-2.6,0.5-3.6,1.6c-0.3,0.3-0.9,0.3-1.2,0c-1.2-0.1-2.4-0.2-3.6-0.2c-0.7,0.5-1.6-0.5-1.1-1.2
		c0.6-0.8,0.8-1.7,1-2.5c-0.8,0.2-1.6,0.3-2.5,0.4c-0.5,0.1-1-0.2-1-0.8s0-1.2-0.1-1.8C45.7,11.9,33.5,7,38.2,0.8
		c-0.5-0.2-0.9-0.5-1.3-0.8h-5.1C34,5.3,40.4,9.8,45.4,12.1z"/>
	<path class="st1" d="M56.5,9.7c0.7-0.4,1.3,0.3,1.2,1c-0.2,0.9-0.4,1.7-0.6,2.4c1-0.2,1.9,0.1,2.9,0.8c0.9-0.9,2.1-1.6,3.5-1.5
		c0.4,0,2.2,0.5,2.6,0.1c0.7-0.6,1.4-1.3,2.1-2c-2.2-2-3.5-4.4-3.7-7.5c-1.6-0.5-3.2-0.4-3.5,2.3c-0.1,0.5-0.4,0.9-0.9,0.9
		c-1.3,0-2.7-0.1-4-0.3c-0.4,1.3-1.2,2.3-2.4,2.9c0.1,0.5,0.1,1,0.2,1.6C54.7,10.4,55.6,10.2,56.5,9.7z"/>
	<path class="st1" d="M35.4,240.7c-3.2-7.1,10.8-13.5,16-13.9c0.3,0,0.5,0.1,0.7,0.3c1.4,0.4,2.8,0.7,4.2,1.1c0-0.1,0.1-0.2,0.2-0.2
		c1-0.7,2.1-1,2.8-2c-5.7,0.1-12.8-0.7-18.6,1.1c-1.8,0.8-3.5,1.7-5.2,2.6c-0.4,0.3-0.9,0.7-1.2,1.1c-3.9,4-4.1,8.1-2.5,11.7h5.1
		C36.3,242,35.8,241.4,35.4,240.7z"/>
	<path class="st2" d="M189.3,107.6c0.4,0.6,0.3,1.3-0.4,1.5c-4,1.3-1.2,5.4-1.4,8.4c0,0.3-0.1,0.6-0.1,0.8
		c2.8,16.4-19.4,21.6-31.6,21.6c-13.3,0-34.1-6.1-29.9-23.5c0.1-0.3,0.3-0.4,0.6-0.4c0-0.7,0-1.4,0.1-2.1
		c2.1-9.6,13.1-15.3,21.4-18.7c5.6-2.3,11.4-4.5,17.4-5.3c3.4-0.5,8-1.1,10.7,1.5l0.1,0.2c0.2,0.1,0.4,0.4,0.4,0.7
		c0,0.3-0.1,0.6-0.2,0.9c0.1,0,0.2,0,0.4,0.1c1.6,0.7,3.3,1.5,4.6,2.7c0.8,0.8,1.5,2.4,2.4,2.9C187.1,100.8,187.2,104.9,189.3,107.6
		z M175.9,94.9c-0.9,1.7-2.3,3-3.6,4.6c-3.1,3.8-5.8,7.8-8.5,11.9c-3.1,4.7-6.6,8.2-11.4,10.9c3.2-0.1,6.5,0.2,9.7,0
		c3-0.2,6.3-0.6,8.9-2.5c2.1-1.5,1.9-2.8,2.9-4.8c0.3-0.5,1.1-1,1.6-1.2c1.6-0.7,2.1-2.3,2.2-3.9c0.1-0.9,0.4-2,1.2-2.5
		c2.1-1.4,0.9-1.9,1.2-4c0.2-1.6,0.4-2.8,1.2-4.1c-0.8-2.2-3.4-3.4-5.3-4.2C176,95,175.9,95,175.9,94.9z M135.3,123.4
		c3.2,0.9,6.6,0.7,9.8-0.1c0.2-0.2,0.5-0.3,0.7-0.2c2.1-0.6,4.1-1.5,5.9-2.6c5.3-3.2,8.4-7.3,11.8-12.4c1.5-2.3,3-4.6,4.7-6.7
		c0.4-0.5,0.9-1,1.4-1.6c-11,0.7-21.3,4.6-32.1,6.2c-0.6,0.1-0.8-0.7-0.2-0.9c11.2-2.9,22.4-6.6,34-7.1c1.7-1.8,3.2-3.7,3.5-5.6
		c0-0.1,0.1-0.3,0.1-0.4c-3.2-1.9-7.6-1.1-11-0.4c-4.4,1-8.8,2.4-13,4c-7.7,3-16.3,6.9-20.9,14.2
		C126.5,115.4,128.6,121.7,135.3,123.4z M145.1,125.2c-2.6,0.6-5.3,0.9-7.9,0.5c0.6,1.7,1.2,2.8,3.5,3.4c2.1,0.5,4.3,1.3,6.6,1.7
		C146.1,129.1,145.4,127,145.1,125.2z M185.8,120.8c-0.6,0.5-1.4,0.9-2.2,1.2c0.6,1.9,0.6,3.8-1.1,5.3c-0.9,0.8-1.7,1.6-2.9,1.6
		c-1.7,0-2.5-1.1-3.2,1.5c-0.4,1.4-2.8,2.8-4.2,2.9c-0.6,0-1.2-0.5-1.7-0.6c-1.9-0.3-4.3-0.3-5.7,1c-1.3,1.2-3.6,2-5,0.3
		c-0.9-1.1-2.1-3.9-4.1-2.5c-0.9,0.6-1.6,1.2-2.6,1.6c-1.6,0.7-3.1,0.3-4.3-0.6c-3.4,0-7.4-1.3-10.4-2.5c-1.9-0.8-2.5-2.8-2.8-4.7
		c-0.7-0.2-1.3-0.4-2-0.7c-2.8-1.3-5.7-3.6-6.9-6.6c-0.7,15.2,16,20.2,28.9,20C166.1,138,186.3,134.3,185.8,120.8z M187.3,107.8
		c-1.3-2.5-2.1-6.1-4.6-7.1c-1.2,2.3,0.2,3.8-0.5,6.2c-0.5,1.9-2.7,1.3-2.8,4c-0.1,1.4-0.2,2.8-1.3,3.7c-1.6,1.3-2.7,1.6-3.1,3.8
		c-0.3,1.6-3.8,3.4-5.1,4.1c-1.7,0.9-3.8,1.3-5.7,1.5c-5.1,0.4-10.3-0.3-15.4,0c-0.8,0.3-1.6,0.6-2.5,0.9c0.4,2.2,1.3,4.7,3.1,6
		c0.1,0,0.3,0,0.4,0c0.5,0,0.7,0.2,0.8,0.6c0.2,0.1,0.4,0.1,0.6,0.1c2.3,0.3,3.3-2,5.4-2c1.4,0,2.4,0.6,3.2,1.6
		c2.3,2.9,3.6,0.8,5.4-0.6c2.2-1.6,8.5,3.1,9.5-1.4c0.2-0.8,0.6-2.5,1.7-2.7c0.7-0.1,1-0.2,1.8,0.1c2.7,1.1,4.5-2,3.3-4.7
		c-0.3-0.6-0.1-1.1,0.6-1.4c5.4-1.9,2.5-5,2.6-9C184.9,109.7,185.8,108.6,187.3,107.8z"/>
	<path class="st2" d="M133.7,112.9c7-2.1,14.4-2.8,21.5-4.5c0.7-0.2,0.5-1.3-0.2-1.2c-7.3,0.9-14.8,1.9-21.8,4.1
		C132.1,111.5,132.6,113.2,133.7,112.9z"/>
	<path class="st2" d="M150.5,114.2c-4.2,0.6-8.4,1.2-12.6,1.9c-0.6,0.1-0.5,1.1,0.1,1.1c4.2,0.1,8.5-0.8,12.7-1.3
		C151.9,115.7,151.7,114.1,150.5,114.2z"/>
	<path class="st2" d="M156.2,55.5c-3.1,2.9-6.2,6-9.7,8.5c1,2.5,3.2,6.9,0.9,9s-5.9,2.4-8.5,3.8c0,0.2-0.1,0.3-0.1,0.5
		c-1.1,3.3-4.3,5.3-7.5,6.4c0.2,0.9,0.4,1.8,0.7,2.8c0.1,0.4-0.1,0.8-0.4,1c-4.1,2.8-7.8,6.3-12.1,8.9l-0.2,0.1
		c-1.2,2.3-3.8,3.7-6.3,4.3c0.2,1,0.4,1.9,0.6,2.7c0.1,0.3,0,0.7-0.2,0.9c-4.3,3.5-7.8,7.7-12.3,11c-0.4,0.3-0.9,0.1-1.2-0.2
		c-0.5,0-1,0-1.5,0.1c-0.4,0-0.8,0.1-1.2,0c-1.2,1.1-2.7,1.8-4.4,2c-2.5,0.3-4.5-0.8-5.8-2.5c-0.7,0.6-1.4,1.1-2.1,1.7
		c-1.5,1.3-2.8,2.7-4.3,3.9c-0.7,0.5-1.6-0.5-1.2-1.1c1.2-1.8,3.1-3.2,4.8-4.5c0.6-0.5,1.2-1,1.8-1.4c-1.6-3.1-1.6-7.4,0.5-9.9
		c-0.1-0.3-0.1-0.6,0.2-0.8c0.7-0.6,1.3-1,2-1.3c0-0.3,0.1-0.5,0.4-0.7c4.8-3.2,8.5-7.1,13.4-8.8c-0.1-0.1-0.1-0.3-0.1-0.4
		c0.7-4.7,4.2-6.6,7.8-6.3v-0.1c2.6-4,6.4-6.9,9.7-10.3c0.2-0.2,0.6-0.3,0.8-0.2c0.8,0.3,1.7,0.5,2.5,0.8c1-4.1,4.9-7.2,8.7-7
		c0-0.1,0.1-0.2,0.1-0.3c1.9-2.3,3.9-4.3,5.7-6.7c0.2-0.3,0.6-0.6,1-0.4c2.2,0.8,4.3,1.6,6.7,1.7c0.1,0,0.2,0,0.3,0.1
		c2.7-3,5.9-5.8,8.9-8.5C155.7,53.3,157.2,54.6,156.2,55.5z M133.5,68.5c1,0.3,1.9,0.8,2.8,1.5l0,0c2.1-2,4.3-4.2,6.7-5.9
		c-0.4-0.1-0.8-0.2-1.2-0.3c-0.7-0.2-2.6-1.3-3.2-0.6C137.1,65,135.3,66.8,133.5,68.5z M111.5,85.3c1.3,0.3,2.7,0.8,3.9,1.7
		c1.7-2.2,4-4,6-5.9c1.4-1.3,2.8-2.6,4.3-3.8c-2.3-0.3-4.5-1.2-6.3,0.4C116.7,80.2,114,82.7,111.5,85.3z M92.1,100.8
		c1.6,0.1,3.2,0.8,4.5,1.8c3.7-3.2,7.2-6.5,10.6-9.9C100.9,93.1,97,97.3,92.1,100.8z M98,109.8c-0.1-0.3,0-0.6,0.2-0.7
		c0-0.8-0.2-1.7-0.7-2.5c-2-3.7-5.6-4.8-9.1-3c-1.6,1.3-2.3,3.3-2,5.6c0.1,1,0.4,2.1,0.9,3.2c0.9-0.7,1.8-1.3,2.7-1.8
		c0.6-0.4,1.3,0.5,0.8,1c-0.8,0.8-1.7,1.5-2.6,2.2c0.9,1.2,2.2,2,3.7,1.9c3.1-0.2,5.7-2.6,6.2-5.4C98,110.1,98,110,98,109.8z
		 M99.1,113.8c-0.1-0.2-0.2-0.4-0.2-0.6c-0.1,0.2-0.2,0.4-0.4,0.6C98.7,113.8,98.9,113.8,99.1,113.8z M111.4,103
		c-0.7-3.3-1.6-6.5-2.3-9.7c-3.6,3.7-7.3,7.3-11.6,10.2c0.7,0.7,1.3,1.6,1.8,2.6c0.6,1.3,0.8,2.7,0.6,4c0.4,1,0.7,2.1,1,3.1
		c2.1-1.7,4-3.5,5.9-5.4C107.6,107,111.6,104.1,111.4,103z M117.9,94.5c0.2-2.1-1.2-4-2.8-5.4c-1.7-1.4-4-2.6-6.3-2.4
		c-2.8,0.2-4.1,2.4-5.1,4.8c1.7-0.4,3.5-0.7,5.5-0.5c0.6,0,1,0.7,0.8,1.2c1.4,1.7,2,4.2,2.5,6.6C114.8,98.2,117.7,97,117.9,94.5z
		 M130,86.3c-0.7-2.9-1.3-5.9-2.3-8.8c-2,1.8-3.9,3.5-5.8,5.4c-1.7,1.6-3.3,3.7-5.3,5c1.7,1.5,3.2,3.7,3.2,6
		C123.3,91.5,126.5,88.8,130,86.3z M135.3,71.6c-1.4-1.3-3.5-2-5.4-1.4c-2.7,0.8-3.9,3.1-5.2,5.4c0.9,0.1,1.8,0.2,2.7,0.1
		c0.2,0,0.4,0,0.6,0.1c0.3-0.1,0.5,0,0.7,0.2c0.1,0.1,0.2,0.1,0.2,0.3c0.9,1.8,1.4,3.7,1.9,5.6c2.4-1,5.4-2.5,6.1-5.3
		C137.4,74.7,136.7,72.8,135.3,71.6z M145.2,64.8c-2.7,2-4.8,5-7.7,6.4c0.8,1,1.3,2.2,1.5,3.4c2.1-0.9,4.4-1.5,6.4-2.6
		C147.6,70.8,145.9,67.2,145.2,64.8z"/>
	<path class="st2" d="M177.6,71.6c-5.4-2.3-13.4-6.8-14.3-13.3c-0.4-0.2-0.6-0.5-0.4-1c2.3-5.1,13.5-42.1,16-47.1
		c0.2-1.3,1.3-2.5,3.6-3.5c6.4-2.8,15.2,0.5,21.9,2.9c5.7,1.4,12.1,4.2,14.3,9.8c0.6,1.5,0.3,2.7-0.5,3.7
		c-1.4,5.2-14.9,39.6-20.1,47c0,0.2,0,0.4-0.2,0.6C193.4,76.4,183.3,74.1,177.6,71.6z M216,24.9c-0.6,0.3-1.3,0.5-1.9,0.7
		c0.3,0.6,0.5,1.3,0.6,2C215.3,26.4,215.7,25.4,216,24.9z M181,12.3c0.3,0.7,0.8,1.3,1.3,1.8c5.5-0.2,13.8,1,15.3,1.5
		c3.9,1.1,11.7,4,15.3,8.3c3.1-0.4,5.6-1.6,4-4.5c-3.2-5.3-9.6-7.4-15.2-8.8c-0.3-0.1-0.5-0.3-0.6-0.6c-4.3-1.3-8.8-2.5-13.2-2.5
		C185.7,7.6,179,8.5,181,12.3z M197.1,17.2c-3.3-0.8-6.7-1-10-1.1c-0.3,0-1.2-0.1-2.4-0.1c0.9,0.6,1.8,1.1,2.7,1.5
		c5.7,2.9,12.1,5,18.4,6.3c0.8,0.2,2.8,0.3,4.9,0.2C207.1,20.5,200.7,18,197.1,17.2z M179.2,14.4c0.4-0.1,0.8-0.2,1.3-0.2
		c-0.3-0.4-0.6-0.8-0.9-1.3C179.5,13.3,179.4,13.8,179.2,14.4z M178.4,16.9c6.8,11,22.9,15.9,35,12.8l0,0c0.1-1.3-0.4-2.6-1.1-3.8
		c-8.1,0.8-17.3-2.8-24.4-6.2c-1.6-0.8-3.9-2.2-5.7-3.8c-1.8,0-3.4,0-3.5,0.3c0,0.1-0.1,0.2-0.2,0.3
		C178.5,16.6,178.4,16.8,178.4,16.9z M196.2,70.2c2.3-3.7,11.6-26.4,16.8-38.4c-5.8,2.4-14.1,0.3-19.3-1.7
		c-5.8-2.2-12.5-5.7-15.8-11.3c-3.6,11.4-11.3,34.7-13.1,38.8c1.6,6,8,10.1,13.4,12.3C184,72.2,190.6,73.7,196.2,70.2z"/>
	<path class="st2" d="M199.1,56.3c-0.7,4.7-2.3,10.9-8,11.3c-5.7,0.5-11.3-2.8-16.4-4.8c-0.3-0.1-0.5-0.3-0.6-0.6
		c-0.2,0-0.4-0.2-0.4-0.3c-0.2-0.2-0.3-0.5,0-0.8s0.5-0.6,0.8-0.8c0.1-0.7,0.3-1.3,0.5-1.9c0.2-3.9-2.9-8.4,0.8-11.7
		c4.3-3.8,10.4-0.7,14.7-4.1c0.5-0.4,1.4-0.1,1.4,0.6c-0.4,4.2-1.5,8.7-4.9,11.5c-1.8,1.4-4,2.3-6.1,3.3c5.8-0.6,12.1,2,16.8-2.5
		C198.1,55.2,199.2,55.6,199.1,56.3z M176.1,56.1c2.5-3.6,7.1-6,10-9c0.4-0.4,1.2,0.2,0.8,0.7c-3.1,3.9-8.4,6.3-10.5,10.9
		c1.8-1.1,3.7-1.8,5.6-2.7c4.8-2.4,7-6.2,7.8-11.2c-4.2,1.8-10.2-0.3-13.1,3.1C174.7,50.5,175.7,53.3,176.1,56.1z M197,58.3
		c-6.3,3.8-13.9-1.1-20.6,2.5c4.9-0.9,9.6,1,14.6,1.6c1.2,0.2,1.1,2-0.1,1.8c-4.4-0.6-8.5-2.2-12.9-1.9c3.4,1.5,6.9,3.1,10.4,3.5
		C193.8,66.4,196,62.8,197,58.3z"/>
	<path class="st2" d="M67.7,164.2c0.1,0.1,0.2,0.3,0.1,0.6C66.3,172,56.2,174.6,50,175c-5.9,0.4-15,0.1-18.8-5.3
		c-0.4,0-0.8-0.2-0.8-0.7c-0.3-5.6-7.4-43.6-7.4-49.2c-0.4-1.3,0-2.8,1.6-4.8c4.3-5.4,13.7-6.6,20.8-7.5c5.7-1.4,12.7-1.8,17.2,2.1
		c1.2,1,1.5,2.3,1.3,3.6C65,118.5,68.9,155.3,67.7,164.2z M61.2,117.4c0.6,0.4,1.1,0.9,1.5,1.4c-0.1-1.3-0.1-2.3-0.1-2.9
		C62.2,116.5,61.7,117,61.2,117.4z M25.7,120.8c0.6,0.4,1.3,0.8,2,1c4.8-2.7,12.7-5.4,14.3-5.8c4-0.8,12.2-1.8,17.4,0.3
		c2.5-1.8,4.2-4,1.5-5.8c-5.3-3.3-11.9-2.1-17.6-0.8c-0.3,0.1-0.6,0-0.7-0.2c-4.5,0.8-8.9,1.8-12.9,3.9
		C27.8,114.5,22.2,118.4,25.7,120.8z M42.3,117.8c-3.2,0.8-6.4,2.2-9.4,3.7c-0.2,0.1-1.1,0.5-2.1,1c1.1,0.1,2.1,0.1,3.1,0.1
		c6.4-0.1,13.1-1.1,19.2-2.9c0.8-0.2,2.6-1,4.4-2C52.7,116.1,45.8,116.9,42.3,117.8z M25.1,123.6c0.3-0.3,0.7-0.5,1.1-0.8
		c-0.5-0.2-1-0.5-1.4-0.7C24.9,122.4,25,122.9,25.1,123.6z M25.5,126.1c11.2,6.6,27.6,3.6,37-4.7l0,0c-0.6-1.2-1.5-2.1-2.7-2.8
		c-6.8,4.4-16.6,5.5-24.5,5.7c-1.8,0-4.4-0.1-6.8-0.8c-1.6,0.8-3,1.6-3,1.8c0,0.1,0,0.3,0,0.4C25.5,125.9,25.5,126,25.5,126.1z
		 M63,123.5c-4,4.8-12.3,6.8-18,7.4c-6.2,0.7-13.7,0.7-19.2-2.8c2,11.8,5.9,36,6.3,40.5c4.2,4.6,11.8,5.3,17.6,4.7
		c6.3-0.6,12.8-2.4,16.1-8C66.2,160.9,64,136.4,63,123.5z"/>
	<path class="st2" d="M62,151.6c1.6,4.5,3,10.7-1.9,13.7c-4.8,3-11.3,2.7-16.7,3.3c-0.3,0-0.6-0.1-0.8-0.3c-0.2,0.1-0.4,0-0.5-0.1
		c-0.3-0.1-0.5-0.4-0.4-0.7c0.1-0.4,0.2-0.8,0.3-1.1c-0.2-0.6-0.4-1.3-0.4-1.9c-1.6-3.6-6.4-6.1-4.7-10.7c2.1-5.4,8.9-5.4,11.2-10.4
		c0.3-0.6,1.2-0.8,1.5-0.1c1.6,3.9,2.7,8.4,0.9,12.5c-0.9,2.1-2.4,3.9-3.9,5.7c4.8-3.2,11.7-3.8,13.8-9.9
		C60.7,151,61.8,150.9,62,151.6z M46.9,159.1c3.2-4.3,3.4-8.8,1.8-13.5c-2.9,3.5-9.2,4.4-10.2,8.8c-0.7,3.2,1.5,5.3,3.1,7.6
		c0.6-4.3,3.5-8.6,4.8-12.6c0.2-0.6,1.2-0.4,1.1,0.2c-0.9,4.9-4.6,9.5-4.3,14.5C44.2,162.4,45.6,160.9,46.9,159.1z M61.1,154.4
		c-3.9,6.2-12.9,5.4-17.1,11.7c4-3,9-3.6,13.7-5.3c1.1-0.4,1.9,1.2,0.8,1.6c-4.1,1.5-8.6,2-12.3,4.3c3.7-0.2,7.5-0.4,10.9-1.7
		C62,163,62.3,158.8,61.1,154.4z"/>
	<path class="st2" d="M101.7,28.3c-0.2-0.1-0.3-0.3-0.3-0.6c0.3-4.8,2.6-9.9,4.5-14.3c0.2-0.4,0.5-0.4,0.8-0.3c3-3.5,8.6-5,12.8-6.1
		c5.4-1.5,11-2.5,16.4-4c0.1,0,0.3,0,0.4,0c0.8-0.2,1.7-0.5,2.5-0.8c0.4-0.2,0.8,0,1,0.4c5.2,1.5,9.5,6.1,13,10s6.9,8.1,9,13
		c0.2,0.4,0,0.7-0.2,0.9c0,4.3-1.6,8.4-1.7,12.6c0.5,0.3,0.7,1.1,0,1.5c-11,5.9-24,5-34.4,12.3c-0.2,0.2-0.5,0.1-0.6,0h-0.1
		c-0.2,0.1-0.5,0.1-0.8-0.1c-0.2-0.1-0.3-0.2-0.4-0.4c-7.4-7.8-13.4-16.6-21.7-23.6C101.8,28.6,101.7,28.4,101.7,28.3z M160,27.1
		c-9.6,5.1-20.8,9.3-31.7,10c-0.6,4.7-1.7,9.5-2.6,14.1c8.8-7.9,22-6.9,32.3-11.8C157.9,35.2,159.2,31.2,160,27.1z M107.9,13.6
		c3.3,8.7,11.8,16.6,19.6,21.4c0.3,0.2,0.4,0.4,0.5,0.7c11.1-1.9,21.7-5.3,31.7-10.5c-3.9-8.5-12-17.2-20.1-21.6l-0.2,0.1
		c-0.8,0.3-1.7,0.5-2.6,0.6c-0.1,0.1-0.2,0.1-0.3,0.2C126.7,7.3,116.8,8.6,107.9,13.6z M103.1,27.8c8.4,5.2,14.6,14.5,20.9,22.1
		c0.8-4.3,1.6-8.6,2.8-12.8c-0.1-0.1-0.1-0.1-0.2-0.2h-0.1c-4.7-2.9-8.9-6.8-12.6-10.9c-2.8-3.1-6.2-6.8-7.2-11.1
		C105.6,19.2,104.2,23.4,103.1,27.8L103.1,27.8z"/>
	<path class="st2" d="M121.5,22.4c1.9-5.8,7.4-9.7,13.6-9.6c3.8,0.1,10.2,0.8,10,5.9c-0.4,9.2-17.8,6.7-23,4.7
		c-0.3-0.1-0.4-0.3-0.4-0.5C121.5,22.8,121.4,22.7,121.5,22.4z M127.4,20.7l-0.2,0.1c-1.1,0.4-2.2,0.9-3.3,1.4
		c0.8,0.2,1.6,0.4,2.5,0.6c-0.1-0.3-0.1-0.6,0.2-0.9C126.8,21.6,127.2,21.2,127.4,20.7z M125.8,18.3c1.2-0.1,2.7,0.1,3.1,1.4
		c0.5,1.2-0.2,2.5-1.1,3.4l0,0c4.7,0.8,10.2,0.9,13.5-1.6c5.7-4.2-2.4-7-6.2-7C131.4,14.6,128.3,16,125.8,18.3z M123.7,20.8
		c0.7-0.4,1.5-0.8,2.2-1.3c-0.1,0-0.2,0-0.3,0c-0.3-0.1-0.5-0.3-0.4-0.6C124.6,19.5,124.1,20.1,123.7,20.8z"/>
	<path class="st2" d="M119.3,182.2c-12.4-1-22.8-8.9-35.5-8.4c-0.3,0-0.4-0.2-0.5-0.4h-0.1c-0.3,0-0.5-0.2-0.6-0.5
		c-0.1-0.2-0.1-0.4-0.1-0.6c-1.9-10.6-2.2-21.2-5.4-31.6c-0.1-0.2,0-0.3,0-0.5c-0.1-0.2-0.1-0.4,0.1-0.7c2.9-3.9,7.6-6.9,11.6-9.6
		c0.3-0.2,0.7-0.1,0.9,0.2c4.5-1.3,9.9,0.5,14.1,1.8c5.4,1.7,10.6,3.8,15.9,5.6c0.1,0,0.2,0.1,0.3,0.2c0.8,0.3,1.7,0.5,2.5,0.7
		c0.4,0.1,0.6,0.5,0.6,0.8c3.6,4.1,4.7,10.3,5.5,15.5s1.4,10.6,0.4,15.8c-0.1,0.4-0.4,0.6-0.7,0.7c-2.3,3.6-5.9,6.1-8.3,9.7
		C120.3,181.5,120,182.3,119.3,182.2z M95,159.9c0.1,0.3,0.1,0.6,0,0.8c10.3,4.4,21.1,7.4,32.3,8.5c1.4-9.2-0.7-20.9-5.1-29H122
		c-0.9-0.2-1.7-0.5-2.5-0.9c-0.1,0-0.2,0-0.3,0c-9.7-3-18.7-7.3-29-8C88.2,140.3,91.1,151.6,95,159.9z M84,170.4
		c3-3.1,6-6.3,9.3-9.2c0-0.1-0.1-0.2-0.1-0.3v-0.1c-2.3-5-3.8-10.5-4.6-16c-0.6-4.1-1.5-9.1,0-13.2c-3.3,3-6.9,5.8-10.2,8.8l0,0
		C82.7,149.5,82.8,160.6,84,170.4z M118.2,180.2c2.2-3.5,5.5-6.2,8.3-9.2c-10.8-1-22.5-3.5-32-8.9c-3.1,3.7-6.5,7-9.9,10.4
		C96.3,170.7,106.9,178.7,118.2,180.2z"/>
	<path class="st2" d="M96.8,146.6c-0.1-0.2-0.1-0.3,0.1-0.5c4.7-3.8,11.5-4.1,16.6-0.7c3.2,2.1,8.1,6.2,5.2,10.4
		c-5.3,7.5-18.5-4.1-21.8-8.6C96.7,147,96.7,146.8,96.8,146.6z M102.7,145c1.1,0.5,2.2,1.6,1.9,2.9c-0.3,1.3-1.6,2-2.7,2.3l0,0
		c3.5,3.3,8.1,6.3,12.2,6.1c7.1-0.4,1.8-7.2-1.4-9.2C109.4,144.9,106,144.3,102.7,145z M99.6,145.9c0.9,0.1,1.7,0.1,2.6,0.2
		l-0.2-0.2c-0.2-0.2-0.2-0.5-0.1-0.7C101.1,145.3,100.3,145.6,99.6,145.9z M99,147.2c0.5,0.6,1.1,1.2,1.7,1.9c0-0.3,0.2-0.6,0.6-0.7
		c0.4-0.1,1-0.2,1.3-0.5h-0.2C101.4,147.5,100.2,147.4,99,147.2z"/>
	<path class="st2" d="M187,185.7c0.4,0.4,0.2,1-0.2,1.3l-0.1,0.1c0,0.1,0,0.3-0.2,0.4c-6.6,6.5-3.9,15.5-8.5,22.9
		c-2.1,3.4-5.1,6.8-8.8,8.8h0.1c-0.4,2.1-1.5,4.1-3.1,6.1c-6.3,7.7-16.6,11.8-26.5,11.2c-9.4-0.6-18.3-5.1-20.8-14.6
		c-0.3,0.1-0.7,0-0.9-0.4c-3.6-6-12.4-20-5.4-26.5c4.8-4.4,11.4,0,12.9,5.3c1.5-2.6,2.6-5.3,2-8.8c-0.1-0.3,0.1-0.6,0.3-0.7l0.1-0.2
		c1.3-2.9,2.2-7.5,5.7-8.4c2.8-0.8,5-6.4,7.1-9.2c0-0.2,0-0.3,0.1-0.4c0.2-1,0.4-2,0.7-2.9c-1.2-0.2-2.5-0.4-3.7-0.5
		c-0.6-0.1-1.1-0.6-0.7-1.2c0.9-1.5,2-2.7,3.3-3.7v-0.2c0.4-1.3,1.3-4.5,3-4.6c-2.1-2.1-1.8-6.6,1.2-8.2l0.2-0.1
		c2.6-1.2,5.7-0.1,6.2,2.9c0.2,1.5,0,3.1-0.8,4.4c0.1,0.1,0.2,0.2,0.3,0.4c0.6,1.7,1.1,3.5,1.4,5.3l0.2,0.1c1.5,1.1,2.5,2.4,3.3,4.1
		c0.2,0.5,0.1,1.2-0.5,1.4c-1.5,0.4-3,0.6-4.6,0.7c0.1,0.8,0.1,1.6,0.2,2.3c0.2,0.2,0.4,0.4,0.4,0.7c1.8,3,1.5,7.3,4,9.8
		c2.3,2.2,4.9,4,6.8,6.6l0.1,0.2c0.5,0.2,0.8,0.8,0.6,1.3c0.6,0,1.1,0.5,0.8,1.2c-1.3,3.5-1.1,7.6,0.4,11.1c4.3-1.4,7.9-3.1,9.6-8.4
		c1-3.1,1.6-7.4,4.3-9.6c0.2-0.2,0.6-0.2,0.8-0.1c-0.1-0.4,0-0.8,0.6-1C181.7,183.8,184.7,183.7,187,185.7z M143.6,156.2
		c0.2,1.9,2,3.4,3.9,2.3c1.4-0.8,2.1-2.6,1.7-4.1c-0.5-1.9-2-2.1-3.7-1.7c-0.1,0-0.2,0-0.4,0C144,153.4,143.4,154.7,143.6,156.2z
		 M142.4,163.6c2.5,0.3,5,0.5,7.5,0.2c-0.3-1.3-0.7-2.6-1.1-4c-0.3,0.2-0.7,0.4-1.2,0.5c-1.5,0.4-2.7,0.3-3.6-0.3
		c0,0.1,0,0.2-0.1,0.3c0.2-0.3,0,0.2-0.1,0.3c-0.2,0.4-0.5,0.7-0.7,1C142.9,162.2,142.7,162.9,142.4,163.6z M153.1,168.1
		c-0.5-0.9-1.1-1.6-2.1-2.4c-0.2-0.1-0.3-0.3-0.3-0.4c-3.1,0.4-6.2,0.2-9.2-0.2c-0.9,0.8-1.7,1.6-2.3,2.5
		C143.8,168.2,148.6,169.2,153.1,168.1z M148.6,170.3c-1.9,0-3.8-0.2-5.7-0.5c-0.1,0.6-0.2,1.3-0.4,1.9c-0.1,0.3-0.1,0.6-0.1,0.9
		c2.1,0.2,4.2,0.8,6.2,0.2c0-0.2-0.1-0.4-0.1-0.7C148.6,171.6,148.6,171,148.6,170.3z M130,190.6c8.5,4.4,21.1,3.7,29.8-0.1
		c-2.2-2.7-6.1-4.6-7.6-7.8c-1.2-2.6-1.5-5.5-2.4-8.2c-2.4,1-5.3,0.4-7.8-0.4c-1,1.6-2.1,3.1-3.1,4.8c-0.4,0.7-1.4,4.2-2.4,4.7
		c-1.8,0.8-3.8,1.1-4.8,3.2C131.1,187.9,130.6,189.3,130,190.6z M118.4,215.7c-3.1-3.6-5.1-10.2-3.7-14.6c0.6-1.8,2.8-3.9,4.9-3.3
		c2.3,0.7,3.7,2.5,4.7,4.6c0.1-0.2,0.3-0.4,0.4-0.6c-0.9-2.9-2.9-5.9-6-6.7c-3.9-1-6.7,2.2-6.7,6.1c0.1,6.2,3.3,12.1,6.3,17.5
		C118.3,217.6,118.3,216.7,118.4,215.7z M121,207.3c0.7-1.2,1.4-2.3,2.2-3.4c-1.1-2.3-4.8-7.4-6.9-2.8c-0.8,1.7-0.6,3.7-0.3,5.4
		c0.6,2.5,1.5,4.9,2.7,7.2C119.1,211.4,119.9,209.2,121,207.3z M167,220.2c-1.7,0.6-3.5,0.8-5.4,0.6c-0.4-0.1-0.7-0.4-0.8-0.7
		c-3.7-4.2-2.7-10.3-1.5-15.4c0.1-0.5,0.9-0.5,1.1-0.1c0.5-0.2,0.9-0.3,1.4-0.4c-1.5-4-2-8-0.6-12.1c-9.3,4.4-22.7,5.2-32,0.3
		c1.5,8.4-7.6,14-8.8,22.1c-1.8,11.9,8.1,19.7,19.3,20.1c9.8,0.3,22.5-3.7,26.9-13.4C166.8,220.8,166.9,220.5,167,220.2z M184.2,188
		c-1.9,0.2-3.9-0.6-5.7-1.3c-2.7,4.1-2.7,9.7-6,13.5c-3.2,3.7-7.3,5.2-12.2,5.4l0,0c-0.5,4.6-1.5,9.7,1.8,13.4l0.1,0.1
		c8.5,0.4,15.4-8.6,16.7-16.2C180,197.4,180.3,191.9,184.2,188z M184.8,186.2c-1.4-0.7-2.9-0.6-4.5-0.3
		C181.9,186.3,183.5,186.7,184.8,186.2z"/>
	<path class="st2" d="M98.5,242.5H96c4.4-3.9,9.1-7.6,12.2-12.6c0.1-0.2,0.3-0.3,0.4-0.3c0.7-1.7,0.3-3.9-0.5-6
		c-0.7,4.7-10.4,3.1-13.9,2.5c-1.4-0.2-3.4-0.9-4.9-0.6c-4.1,0.9-5.2,3.9-5.9,7.6c-0.6,2.7-1.2,5.3-3.4,6.6c0.5,0.9,0.9,1.8,1.2,2.7
		h-2c-0.3-0.7-0.6-1.4-1-2.1l0,0c0.3,0.6,0.6,1.3,0.8,2.1h-1.8c-0.4-1.3-1.1-2.5-2-3.4c-1.5-1.5-3.2-2.2-5-2.2
		c-0.2,0.1-0.4,0.1-0.6,0c-0.6,0-1.3,0.2-2,0.4c0.1,0.1,0.1,0.2,0.1,0.4c-0.2,1.7-1.1,3.2-1.4,4.9h-1.7c0.3-1.3,0.9-2.5,1.2-4
		c-1,0-1.9-0.2-2.5-1.1c-0.4-0.6-0.6-1.3-1-1.9c-0.9-1.3-4.6-0.6-6-0.9c-0.1,0-0.2-0.1-0.3-0.1c-1.4,1.9-2.9,3.7-4.6,5.3
		c0.6,0.8,0.9,1.7,1.1,2.6h-1.9c-0.1-0.5-0.3-1.1-0.6-1.5c-0.7,0.6-1.5,1.1-2.2,1.5h-11c-0.6-0.5-1.1-1.1-1.4-1.8
		c-3.2-7.1,10.8-13.5,16-13.9c0.3,0,0.5,0.1,0.7,0.3c1.4,0.4,2.8,0.7,4.2,1.1c0-0.1,0.1-0.2,0.2-0.2c1-0.7,2.1-1,2.8-2
		c-5.7,0.1-12.8-0.7-18.6,1.1c-1.8,0.8-3.5,1.7-5.2,2.6c-0.4,0.3-0.9,0.7-1.2,1.1c-3.9,4-4.1,8.1-2.5,11.7h-1.9
		c-0.7-2.7-0.6-5.7,0.4-8.3c-6.3,0.4-12.6,1.7-18.9,1.3c-3.8-0.2-7.5-1-11.3-1.8v-1.9c3.3,0.7,6.7,1.6,10,1.8
		c6.9,0.4,13.7-0.8,20.6-1.2c0.1,0,0.3,0,0.4,0c0.2-0.3,0.4-0.7,0.6-1c1.8-2.5,4.3-4.2,7.1-5.3c2.6-1.5,5.2-2.7,8-3.9
		c-6.2-0.6-12.4-4-12.5-11c0-2.6,0.5-5.3,1.6-7.8c-5,5.3-10.9,9.3-18.3,11.3c-4.6,1.3-12,3.3-17.5,1.7v-1.7
		c5.7,1.6,12.9-0.5,18.1-2.1c8.8-2.7,15.1-8.4,20.6-15.6c0.3-0.4,0.8-0.4,1.1-0.3c0.6-0.8,1.3-1.5,2-2.2c-4.2,1.9-8.5,3.6-12.7,5.5
		c-6.5,2.9-12.8,6.2-19.3,9.1c-3,1.3-6.5,2.3-9.7,3.7v-1.6c0.1-0.1,0.2-0.1,0.4-0.2c15.6-6.3,30.5-14.4,46.3-20.5
		c6.6-3.8,15.7-4.4,21.7,1c7.6,7,3.9,17.9-2.5,24.6c6.1-1.4,12.3-2.6,18.2-3.8c0.1-0.2,0.3-0.4,0.6-0.4c7-1,17-1.1,21.7,5.2
		c2.1,2.8,6.5,9.6,3.4,13c0,0.1,0,0.3-0.1,0.5C106.7,235.4,102.6,238.9,98.5,242.5z M67.9,210.6c-0.1-0.1-0.2-0.2-0.3-0.3
		c-1.8-3.4-3.6-3.4-7-3.4c-1.9,0-3.5-0.4-4.9-1.5c-1.6,2.1-3.9,2.1-6.1,1c0,0.1-0.1,0.2-0.1,0.2c-1.6,2.1-1.9,4,0.4,5.6
		c3.5,0.6,6.3,3.1,7.7,6.3c1.8-0.5,3.6-1,5.5-1.5C64.8,215.3,66.5,213.1,67.9,210.6z M56.3,204.4c2.5,1.3,5,0.5,7.7,0.8
		c0-0.1-0.1-0.3-0.1-0.4c-0.3-0.7-0.7-1.4-1-2.2c-0.5-1.1-0.9-2.2-1-3.4c-0.3-0.1-0.6-0.3-0.7-0.6c-0.4-1.4-0.8-1.4-1.9-0.7
		c-0.7,0.4-1.4,0.9-2.1,1.2c-0.9,0.4-1.8,0.5-2.6,0.3C56.2,200.9,57.1,202.7,56.3,204.4z M68.1,193.9c-2.4,0.7-4.3,1.8-5.1,4.2
		c0.1,0.1,0.2,0.2,0.2,0.4c0.2,1.7,1.1,3.1,1.8,4.7c0.4,0.8,0.8,1.7,0.9,2.6c1.3,0.6,2.2,1.8,2.9,3.1c2.4-5.2,3-11-0.6-14.9
		L68.1,193.9z M44.7,194.3c2.2,0.4,5.4,1.7,8,3.4c0.1-0.2,0.4-0.4,0.7-0.2c3,1.9,6.6-3.4,8.6-1.3c1-1.9,2.7-3,4.8-3.7
		c-0.9-0.6-1.9-1.2-3.1-1.7C56.9,188.3,50,189.7,44.7,194.3z M48.3,203.4c1.1,0.8,2.5,1.8,3.9,1.8c1.1,0,3-1,2.4-2.4
		c-1.5-3.4-7-6.6-10.8-7.4C43.4,198.3,46,201.6,48.3,203.4z M38,202.7c2.4,1.8,2.8,4.6,2.3,7.4c0.6,0.4,1.2,0.9,1.7,0.6
		c0.7-0.3,1.4-0.6,2.2-0.5c0.9,0.1,1.7,0.4,2.5,0.7c-0.6-1.7,0.1-3.6,1.7-5.3c-3.1-2-5.8-5.7-6.4-8.8
		C40.5,198.7,39.1,200.6,38,202.7z M48.1,216.5c0.4-1,0.5-2,0.2-3c-1.8-0.8-4.2-2.2-5.8-0.8c-0.2,0.2-0.6,0.3-0.9,0.2
		c-1-0.4-2-0.9-2.8-1.6c-0.4-0.3-0.4-0.6-0.3-1.1c0.5-2.3,0.1-4.1-1.2-5.7c-0.8,1.8-1.2,3.8-1.3,5.7c-0.2,6.1,4.2,9,9.3,10
		c-0.2-0.3-0.2-0.8,0.2-1C46.5,218.4,47.6,217.8,48.1,216.5z M46.8,220.4c1.4,0.2,2.8,0.2,4.2,0.1h0.2c1.5-0.5,3.1-1,4.6-1.5
		c-1.1-2.5-3.1-4.3-5.6-5.4c-0.1,0.1-0.2,0.2-0.4,0.2C50.7,216.3,49.2,219.5,46.8,220.4z M57,230c-1.7-0.5-3.4-0.9-5-1.7
		c-0.1,0.1-0.3,0.3-0.6,0.3c-3.1,0.2-17.6,6.5-14.4,11.2c3.2,4.6,9.5,2,12.7-1.1C52.4,236,54.9,233.1,57,230z M68.5,232.4
		c-0.8-0.3-1.6-0.5-2.3-0.8c-1.4-0.7-1.8-1.8-1.6-3.1c-1.6,0.2-3.2-0.1-4.3-1.3c-0.7,0.6-1.4,1-2.3,1.4c0.2,0.1,0.4,0.1,0.6,0.2
		c0.5,0.1,0.8,0.8,0.5,1.3c-0.7,1.1-1.4,2.3-2.3,3.5c2-0.1,4.2-0.7,6.1,0.3c1.6,0.9,0.9,2.8,2.8,3c0.1-0.1,0.1-0.2,0.3-0.3
		c1-0.6,2.1-0.9,3.2-1C69.6,234.2,70,233,68.5,232.4z M77.4,238.9c-1.6-2.5-3.7-4.7-6.2-6.4c0.3,0.9,0.2,1.9-0.2,2.9
		C73.5,235.6,75.8,236.9,77.4,238.9L77.4,238.9z M106.7,220.9L106.7,220.9c-0.9-1.5-1.9-2.8-2.8-3.7c-4.6-4.4-12.6-4.1-18.6-3.4
		c-0.1,0.1-0.2,0.2-0.4,0.2c-13,2.9-25.8,5.5-38,10.3c4.7-0.4,9.4,0,13.4,0.3c0.4,0,0.5,0.3,0.5,0.5c0.1,0.1,0.1,0.1,0.2,0.2
		c0.9,1.9,2.8,1.6,4.4,1.1c0.6-0.2,1.2,0.5,1,1.1c-0.1,0.3-0.1,0.5-0.2,0.7l0,0c5.4,1.6,9.8,5.2,12.7,9.8c3-1.8,2.5-7.3,4.1-10.2
		c1.3-2.4,3.9-4.4,6.8-4.2C94.2,223.9,107.4,228.6,106.7,220.9z"/>
	<path class="st2" d="M38.2,0.8c-0.5-0.2-0.9-0.5-1.3-0.8h11c-0.5,0.3-0.9,0.5-1.4,0.7c-1.9,0.8-4.7,1.1-7,0.6l-0.1,0.2
		C36,8,51.7,10.8,54.1,5.6c-0.7-0.2-1.3-0.5-1.9-0.9c-1.2-1-1.1-3-1.5-4.7h1.9c0.2,0.7,0.3,1.4,0.5,2.2c0.6,2.4,4,2.4,6.3,2.4
		C60,2,62,0.8,64.5,1.4c0-0.5,0-0.9,0.1-1.3h1.7c-0.1,0.8-0.2,1.6,0.1,2.4c0.1,0.3,0,0.6-0.2,0.8c0.2,2.6,1.4,4.7,3.3,6.3
		C71.8,8.2,76,7.5,77.2,5c0.7-1.5,0.6-3.3,0.1-5H79c0.1,0.4,0.2,0.8,0.2,1.3c0.2,2.3,0,4.3-1.7,5.9c0.2,0.1,0.3,0.4,0.3,0.7
		c-0.2,2.7-1.7,6.8-3.8,8.6c-3.2,2.6-6.1-0.1-8.7-2c-0.5-0.1-1-0.3-1.1-0.3c-1.5,0-2.6,0.5-3.6,1.6c-0.3,0.3-0.9,0.3-1.2,0
		c-1.2-0.1-2.4-0.2-3.6-0.2c-0.7,0.5-1.6-0.5-1.1-1.2c0.6-0.8,0.8-1.7,1-2.5c-0.8,0.2-1.6,0.3-2.5,0.4c-0.5,0.1-1-0.2-1-0.8
		s0-1.2-0.1-1.8C45.7,11.9,33.5,7,38.2,0.8z M67,14.1c2.2,1.4,4.7,3.1,6.5,0.5c1.2-1.8,2.2-4,2.6-6.2c-1.9,1.1-4.1,1.6-5.9,2.9
		c-0.2,0.1-0.4,0.2-0.5,0.2C69,12.2,68,13.4,67,14.1z M53.6,9c0.1,0.5,0.1,1,0.2,1.6c0.9-0.2,1.8-0.3,2.7-0.8c0.7-0.4,1.3,0.3,1.2,1
		c-0.2,0.9-0.4,1.7-0.6,2.4c1-0.2,1.9,0.1,2.9,0.8c0.9-0.9,2.1-1.6,3.5-1.5c0.4,0,2.2,0.5,2.6,0.1c0.7-0.6,1.4-1.3,2.1-2
		c-2.2-2-3.5-4.4-3.7-7.5c-1.6-0.5-3.2-0.4-3.5,2.3c-0.1,0.5-0.4,0.9-0.9,0.9c-1.3,0-2.7-0.1-4-0.3C55.6,7.3,54.7,8.3,53.6,9z"/>
	<path class="st2" d="M44.8,14c8.1,4,21.9,9.8,31.1,5.4c0.1,0,0.2,0,0.2,0C83,17,88.1,10.3,93,5.2c1.7-1.8,3.6-3.5,5.6-5.2H96
		c-1.2,1-2.3,2.1-3.4,3.2c-4,4.1-7.6,8.2-11.9,11.7c2.3-4,2.3-9.7,1-13.8c-0.1-0.4-0.3-0.8-0.4-1.1h-2c0.1,0.3,0.3,0.6,0.4,0.9
		c2.5,6.4,0.9,15.2-6.2,17.4c-8.6,2.7-20.2-2.5-28-6.1C40.4,9.8,34,5.3,31.7,0h-1.9c0.3,1.1,0.6,2.1,1.2,3
		C33.8,8.2,39.7,11.5,44.8,14z"/>
	<path class="st2" d="M238.3,213.5c-2.8,1.8-5,4-6.7,7.3c-1.9,3.6-2.4,8.3,1.4,10.7c0.1,0.1,0.2,0.1,0.3,0.1
		c0.1,0.2,0.2,0.4,0.4,0.4c2.9,0.4,5.9,1.1,8.8,1.7v-1.9c-2.7-0.6-5.5-1-8.3-0.9c0.1-0.3,0-0.6-0.3-0.8c-4.8-3-0.8-9.9,2.1-12.9
		c0.9-1,1.9-1.8,3.1-2.5c1,0.8,2.2,1.4,3.5,1.8v-1.7c-0.8-0.2-1.5-0.5-2.2-0.8c0.7-0.4,1.5-0.7,2.2-1.1v-1.6
		c-1.4,0.6-2.6,1.2-3.8,1.9C238.5,213.3,238.4,213.3,238.3,213.5z"/>
	<path class="st2" d="M83.4,91.9c-4.4,3.6-9.9,5.6-16,5.9c-5.6,0.2-11.6-1.2-16.7-3.9l0,0c-3-1.6-5.7-3.6-7.9-5.9
		C30.2,75.1,26.1,63.5,30.3,52.4c2.4-6.3,6.3-12.1,11.3-16.5c5.2-4.6,11.3-7.6,17.6-8.5l0,0l-0.1-0.2h0.2c1.1,0,2.2-0.1,3.2-0.3
		c0.1,0,0.1-0.1,0.1-0.1v-0.1h0.1c0.4,0,0.8-0.1,1.1-0.1c0.5,0,1.1-0.1,1.7-0.1c7.2,0.8,13.6,2.7,19.2,5.7c2.1,1.1,4.1,2.4,5.9,3.8
		c2.7,2,6.5,5.4,9.3,9.8c2.8,4.3,4.1,8.6,4,12.8c-0.3,6.8-3.7,12.5-6.7,16.8c-1.7,2.4-3.6,4.8-5.4,7c-0.5,0.6-1,1.2-1.5,1.8
		c-0.3,0.4-0.6,0.7-0.8,1.1C87.7,87.5,85.7,89.9,83.4,91.9z M78.2,93.2c5.7-3,10-8.8,13.8-14c0.6-0.8,1.2-1.6,1.7-2.3
		c4.2-5.6,8.7-12.1,8.5-19.2c-0.4-9.4-7.7-17.4-14.3-21.7c-1.2-0.8-2.5-1.5-3.7-2.2c-5.9-3.1-12.5-5-19.6-5.8
		c-0.1,0.1-0.2,0.1-0.3,0.1c-5.6,0.2-10.9,1.7-15.3,4.3c-7.2,4.3-13,10.8-16,18c-2.4,5.6-4.2,14.2,0.9,23.1
		c6.6,11.6,13.7,16.8,17.3,18.8c0.2,0.1,0.3,0.2,0.5,0.3C59.9,96.8,70.8,97.1,78.2,93.2z"/>
	<path class="st2" d="M85.1,77.8c-0.6,0.3-1.2,0.5-1.8,0.7c-1.1,0.3-2.2,0.6-2.7,1.8c-1.3,3.3-2.6,3.5-5.8,2.9
		c-0.9-0.2-1.9,0.6-2.9,1.4c-0.7,0.5-1.3,1-1.9,1.2c-1.3,0.4-3.1-0.1-3.6-0.3c-0.3-0.1-0.6-0.2-1-0.4c-1.5-0.6-3.7-1.6-4.9-1.1
		c-0.3,0.1-0.6,0.4-0.7,0.7c-0.1,0.2-0.1,0.4-0.2,0.5C59.2,86,59,86.5,58.5,87c-1.3,1.3-3.8,0-5.2-0.8C53.1,86.1,53,86,52.8,86
		c-0.3-0.2-0.7-0.3-1.1-0.5c-0.7-0.3-1.4-0.7-2.2-1.1l0,0c-2.2-1.2-3.5-2.3-4-3.5c-0.9-2.1-1.7-3.7-3.9-5c-1.2-0.7-1.6-1.9-2-3
		c-0.2-0.6-0.2-1.3-0.1-1.9c0-0.4,0-0.8,0-1.2c-0.2-1.9-0.5-2.2-1.1-2.6c-0.3-0.2-0.6-0.4-0.9-0.9c-0.9-1.1-1.1-2.1-0.8-3
		s0.8-1.6,1.2-2.3c0.4-0.6,0.8-1.2,1-1.9c0.5-1.2,0.6-2.5,0.6-3.7c0-0.9,0.1-1.8,0.3-2.7c0.4-1.6,1.5-2.7,2.7-3.7
		c1.3-1.1,2-2.5,2.6-3.9c0.3-0.7,0.7-1.5,1.2-2.3c1-1.5,2.6-2.5,4.8-2.8c0.2-0.3,0.5-0.5,0.8-0.4c2.6,0.2,4.6-1.3,6.6-2.8
		c2.3-1.7,4.7-3.5,7.8-2.5c0.5,0.2,1.1,0.5,1.7,0.9c0.3,0.2,0.6,0.4,0.9,0.5c0.4,0.2,0.7,0.3,1.1,0.4c0.9,0.2,1.7,0.2,2.5,0.2
		c0.3,0,0.7,0,1.1,0c1.6,0.1,2.9,0.4,4.5,1.2c0.5,0.3,1.1,0.5,1.6,0.8c3.6,1.9,6.6,3.8,9,6.7c3.8,4.6,8.6,11.5,6.3,19
		c-0.6,1.9-1.2,3.8-2.6,5.1c-0.6,0.6-1.3,1.1-2,1.6c-0.9,0.7-1.9,1.4-2.5,2.2c-0.4,0.5-0.7,1.2-1,1.8C86.6,76,86.1,77.2,85.1,77.8z
		 M85.4,74l0.1-0.2c0.5-1,1.1-2,2-2.7c4.3-3.5,7-6.8,6.4-11.9c-0.5,0.7-1.1,1.1-1.9,1.1c-0.2,0-0.5,0-0.7,0c-0.9,0-1.8,0-2.3,0.5
		c-0.3,0.3-0.4,0.8-0.3,1.6c0.2,1.9,0.2,3.1-0.5,3.9c-0.5,0.6-1.4,1-2.7,1c-0.3,0-0.6-0.3-0.6-0.6c0-0.2,0.2-0.4,0.4-0.5
		c1.2-0.4,2.3-0.8,2-2.2c0-0.2-0.1-0.4-0.1-0.5c-0.1-0.4-0.1-0.7-0.2-1.1c-0.1-0.8-0.1-1.8,0.6-2.7s1.9-1,2.9-1c1.1,0,2-0.1,2.3-1
		c0.1-0.2,0.2-0.3,0.4-0.4c0.1,0,0.2-0.1,0.4,0c-0.7-2.9-2.1-5.8-4.5-8.9c-2.2-2.9-4.7-5.2-7.8-7.1c0,0.5-0.1,0.9-0.1,1.4
		c-0.2,1.2-0.3,2.2,0.7,2.7c0.2,0.1,0.4,0.2,0.7,0.2c0.6,0.1,1,0.3,1.4,0.5c1.2,0.6,1.5,1.7,0.9,3.1c-0.1,0.2-0.2,0.3-0.4,0.4
		c-0.2,0.1-0.4,0-0.5-0.1c-0.3-0.2-0.5-0.5-0.4-0.8v-0.2c0.1-0.6,0.1-1-0.2-1.2c-0.1,0-0.2-0.1-0.3-0.1c-0.1,0-0.3-0.1-0.4-0.1
		C82.5,47,82.2,47,82,46.9c-0.3-0.1-0.6-0.2-1-0.4s-0.7-0.5-0.9-0.8c-0.7-1.1-0.5-2.1-0.2-3.1c0.2-0.7,0.3-1.4,0.2-2.2
		c-0.5-0.3-1.1-0.6-1.6-0.9c-2.6-1.3-4.5-1.4-7.2-1.6H71c-1,0.1-2-0.2-3-0.7c-0.2-0.1-0.3-0.2-0.5-0.3c-0.9-0.5-1.8-0.8-2.7-0.8
		c-1.2,0.6-1.7,1.5-2.2,2.6c-0.2,0.4-0.4,0.7-0.6,1.1c-0.6,1-1.3,1.6-2.5,2.1c-0.2,0.1-0.3,0-0.4,0c-0.2-0.1-0.2-0.3-0.2-0.5
		s0.1-0.4,0.3-0.5c1.2-0.5,1.5-1.5,1.9-2.5c0.2-0.5,0.3-0.9,0.6-1.4l0.1-0.2c-1,0.5-1.9,1.1-2.9,1.7c-2.1,1.4-4.3,2.8-6.8,2.7
		c-2.7,0.4-4.4,1.7-5.3,4c-0.1,0.3-0.2,0.5-0.3,0.8c-0.4,1.1-0.8,2.3-1.5,3c-0.2,0.2-0.3,0.3-0.5,0.4c-1.1,1.1-2,1.9-2.6,3
		c0.5,0.2,0.8,0.3,1.3,0c0.3-0.2,0.6-0.5,0.9-0.8c0.2-0.2,0.4-0.4,0.7-0.6c1.4-1.2,2.7-1.4,3.9-0.7c0.3,0.2,0.4,0.6,0.3,0.9
		c-0.1,0.3-0.4,0.5-0.7,0.4c-1.3-0.4-2.1,0.3-3,1.1c-0.3,0.2-0.5,0.5-0.8,0.7c-0.7,0.5-1.8,1-2.8,0.5l-0.2-0.1
		c-0.1,0.6-0.2,1.2-0.2,1.9V56c0,1.1,0,2.2-0.5,3.1c-0.2,0.6-0.5,1.1-0.8,1.6c-1,1.8-2,3.6,0.1,5.7c0.6,0.6,1,1.6,1,2.3
		c0,0.5,0,1,0,1.5s0,1,0,1.4c0.2,2.4,1.3,2.9,2.6,3.5c0.3,0.1,0.5,0.3,0.8,0.4c0.6,0.3,1.4,1.2,1.7,1.9l0.2,0.5
		c0.7,2,1.1,3.1,3.1,4.3c0.2,0.1,0.3,0.2,0.5,0.3l0.1,0.1c0-0.2,0.1-0.4,0.2-0.6c0.3-0.6,0.8-1,1.3-1.4c0.5-0.5,1-0.9,1.3-1.5
		s0.1-1.1-0.6-1.5c-0.3-0.1-0.6-0.3-0.9-0.4c-0.5-0.2-1.1-0.4-1.3-0.7c-1.2-1.1-0.9-2.6-0.5-3.9c0.1-0.2,0.2-0.3,0.3-0.4
		c0.2-0.1,0.3-0.1,0.5,0s0.3,0.3,0.3,0.6v0.1c-0.1,1-0.3,2.3,0.8,2.7c0.2,0.1,0.4,0.2,0.7,0.2c0.3,0.1,0.7,0.2,1,0.3l0.1,0.1
		c0.5,0.2,1.6,0.9,1.6,2.1c0,0.9-0.4,1.8-1.2,2.6c-0.2,0.2-0.3,0.3-0.5,0.5c-0.3,0.3-0.6,0.5-0.9,0.8c-0.4,0.5-0.2,0.7,0.2,1.1
		l0.2,0.2c0.1,0.1,0.2,0.3,0.2,0.4L53,84l0.1,0.1c0.2,0.1,0.3,0.2,0.5,0.3c0.2,0.1,0.4,0.2,0.6,0.3c0.9,0.5,2,1,2.8,0.7
		c0.4-0.1,0.7-0.4,0.9-1c0.2-0.4,0.4-1,0.8-1.3c0-0.1,0-0.3,0.1-0.5c0.2-0.3,0.4-0.6,0.6-0.9c0.6-0.9,1.2-1.7,1.8-2.6
		c0.2-0.2,0.4-0.3,0.7-0.1c0.2,0.1,0.3,0.2,0.3,0.4c0,0.1,0,0.3-0.1,0.4c-0.2,0.4-0.5,0.8-0.7,1.2c-0.2,0.4-0.5,0.9-0.7,1.3
		c1.3-0.2,2.6,0.3,3.8,0.8c2.7,1,4.4,1.6,6.6-0.2c-0.3-0.3-0.4-0.6-0.4-0.9c0-1-0.7-1.6-1.4-1.9c-0.3-0.1-0.5-0.3-0.8-0.4
		s-0.5-0.2-0.7-0.3c-1.1-0.6-1.7-1.5-2.3-2.4c-0.4-0.7-0.8-1.2-1.4-1.5c-0.7-0.4-1.7-0.1-3.2,0.8c-0.2,0.1-0.4,0.1-0.5,0
		c-0.2-0.1-0.3-0.3-0.3-0.5s0.1-0.4,0.2-0.5c1.9-1.4,3.3-1.7,4.6-1c0.6,0.3,1.2,0.9,1.8,1.7c0.7,0.9,1.3,1.7,2.2,2.2
		c0.3,0.2,0.7,0.3,1.1,0.4c0.6,0.1,1,0.5,1.4,0.8l0.1,0.1c0.5,0.4,0.6,1,0.6,1.5c0,0.3,0,0.5,0.1,0.8c0.5-0.3,1.1-0.3,1.6-0.4
		c0.4,0,0.9,0.1,1.3,0.2c0.2,0.1,0.3,0.1,0.5,0.1c1.9,0.5,2.3-0.4,2.6-1.4c0.1-0.3,0.2-0.5,0.3-0.8c0.5-1,1-1.5,1.8-2.1
		c0.4-0.3,1.1-0.4,1.6-0.5H82C84,76.6,84.7,75.4,85.4,74z"/>
	<path class="st2" d="M78.7,54.8c-3,4.1-6.1,7.8-10.6,8c3,2.3,4.4,5.4,4.1,9.4c0,0.3-0.2,0.5-0.4,0.7c-0.3,0.1-0.5,0.1-0.8,0
		c-1.7-0.6-3.1-1.2-4.3-1.9l0,0c-3-1.6-4.8-3.4-5.2-5.3c-0.3-1.5,0.2-3.1,1.5-4.8l0,0c-0.3-2.2,0.1-3.9,1.1-5.1
		c1.9-2.2,5.7-2.2,9.3-2.2c1.7,0,3.3,0,4.6-0.2c0.4-0.1,0.7,0.2,0.7,0.5C78.9,54.3,78.9,54.6,78.7,54.8z M65.2,62.8
		c0.2,1.5,1.1,2.7,2,4c0.2,0.3,0.4,0.6,0.6,0.8c0.2,0.3,0.2,0.6-0.1,0.9c-0.3,0.3-0.8,0.4-1.1,0.1c-0.8-0.9-2.8-3.1-3-5.6
		c-0.6,1-0.7,1.9-0.5,2.7c0.4,1.4,1.7,2.7,4,3.9c1.2,0.6,2.4,1.1,3.4,1.5C70.6,67.3,68.9,64.7,65.2,62.8z M76.5,55.2
		c-1.2,0.1-2.4,0-3.5,0c-0.9,0-1.8-0.1-2.8,0c-3.5,0.1-5.2,1.4-5.9,4.6c1.4-1.9,4.4-2.3,6.2-2.4c0.1,0,0.2,0,0.3,0.1
		c0.2,0.1,0.4,0.4,0.3,0.7c0,0.2-0.2,0.4-0.4,0.4l-0.3,0.1c-1.7,0.3-4.2,0.8-5,2.3C70.2,62.2,73.3,59.6,76.5,55.2z"/>
	<path class="st2" d="M65.9,50c0.1-0.2,0.1-0.4,0.1-0.6c-0.1-0.2-0.2-0.4-0.4-0.5l-0.2-0.1c-0.3-0.1-0.6-0.2-0.8-0.4
		c-0.6-0.3-0.9-0.6-1-0.9c-0.1-0.3,0-0.5,0.3-0.8c0.3-0.4,0.7-0.8,1.1-1.1c0.2-0.1,0.3-0.3,0.5-0.4c0.7-0.7,1.5-1.7,1.1-3
		c0-0.1-0.1-0.2-0.2-0.3c-0.2-0.1-0.4-0.1-0.6,0.1c-0.2,0.1-0.2,0.3-0.2,0.5c0.2,0.8-0.9,1.7-1.9,2.6c-0.7,0.6-1.3,1.1-1.5,1.6
		C61.9,47,61.8,47.5,62,48c0.2,0.7,0.9,1.4,2,2c-0.7,0.7-1.5,0.7-2.6,0.1c-0.8-0.4-1.5-1-2.2-1.6c-0.5-0.4-1-0.8-1.5-1.1
		c-1-0.6-1.9-0.7-2.8-0.4c-0.9,0.4-1.6,1.3-2,2.6c-0.1,0.3,0.1,0.7,0.4,0.8c0.2,0.1,0.4,0.1,0.6,0.1c0.2-0.1,0.3-0.2,0.4-0.4
		c0.4-1,0.8-1.4,1.2-1.6c0.4-0.1,0.9,0,1.6,0.4c0.6,0.4,1.2,0.8,1.8,1.3c0.4,0.4,0.9,0.7,1.4,1c0.2,0.1,0.4,0.3,0.6,0.4l0,0
		C62.9,52.6,64.8,52.1,65.9,50z"/>
	<path class="st2" d="M52,62.5c-0.3-0.1-0.5-0.2-0.8-0.2c-0.4,0-0.8,0-1.2,0.1c-0.9,0.1-1.6,0.1-2.4-0.3c-0.2-0.1-0.4-0.3-0.6-0.4
		c-0.2-0.2-0.3-0.4-0.3-0.6c0-0.6,0.9-1.2,1.8-1.9c1.1-0.8,2.2-1.7,2.2-2.7c0-0.5-0.3-0.9-0.9-1.4c-0.3-0.2-0.7-0.1-0.8,0.1
		c-0.2,0.2-0.1,0.5,0.1,0.7c0.1,0.1,0.2,0.3,0.2,0.4c0,0.5-0.9,1.1-1.7,1.7c-1.3,1-2.8,2.1-2.4,3.4c0.3,0.8,1,1.6,2,2.1
		c0.5,0.3,1,0.4,1.5,0.5c0.3,0,0.6,0,0.9-0.1h0.1c0.2,0,0.4-0.1,0.6-0.1c0.9-0.4,1.3,0.2,1.4,1.6c-0.4,0.5-1.1,0.8-1.8,1.1
		c-0.6,0.3-1.1,0.5-1.6,0.9c-0.2,0.1-0.2,0.3-0.2,0.6c0,0.2,0.2,0.5,0.4,0.6s0.5,0.1,0.7,0c0.4-0.3,0.9-0.5,1.4-0.8
		c1.6-0.8,3.2-1.7,2.6-3.9C53,63.4,52.5,62.8,52,62.5z"/>
	<path class="st2" d="M58.2,63.5c-0.2-0.3-0.4-0.6-0.5-0.9c-0.3-0.8,0.4-1.5,0.9-2.2l0.1-0.2c0.1-0.1,0.2-0.3,0.2-0.5
		s-0.1-0.3-0.2-0.4c-0.4-0.3-0.9-0.6-1.3-0.8c-0.3-0.2-0.6,0-0.7,0.2c-0.1,0.2-0.1,0.6,0.2,0.7c0.2,0.1,0.3,0.2,0.5,0.3
		c-1,1-1.4,2.2-1,3.4c0.1,0.4,0.3,0.8,0.5,1.1c0.4,0.7,0.7,1.3,0.2,2.2C57,66.6,57,66.8,57,67c0.1,0.2,0.2,0.4,0.4,0.5
		c0.3,0.2,0.8,0.1,1.1-0.3c0.7-1,0.7-2.1,0-3.3C58.4,63.9,58.3,63.7,58.2,63.5z"/>
	<path class="st2" d="M84.5,51.9c-0.1-0.2-0.4-0.3-0.6-0.5c-0.5-0.3-1.2-0.5-1.9-0.7c-0.6-0.2-1.3-0.4-1.7-0.6
		c-0.3-0.2-0.5-0.4-0.6-0.5c-0.1-0.7-0.5-1.2-1.1-1.5c-0.7-0.3-1.6-0.4-2.5-0.2c-1.6,0.4-2.8,0.5-3.4,0.1c-0.6-0.3-0.7-0.9-0.5-1.8
		c0.1-0.3,0.1-0.5,0.2-0.8c0.2-0.8,0.5-1.6,0.3-2.6c0-0.2-0.1-0.3-0.3-0.4c-0.2-0.1-0.3-0.1-0.5,0s-0.3,0.3-0.3,0.5
		c0,0.6-0.2,1.3-0.4,2.1c-0.4,1.8-1,3.8,0.6,4.6c0.5,0.2,1.1,0.4,1.9,0.3c0.6,0,1.3-0.2,1.9-0.4c0.5-0.1,0.9-0.3,1.4-0.3
		c0.4-0.1,0.7,0,0.8,0.1c0.3,0.2,0.3,0.5,0.4,0.8c0,0.3,0.1,0.7,0.3,0.9c0.1,0.1,0.3,0.2,0.4,0.3c0.5,0.3,1.1,0.4,1.8,0.5
		c0.6,0.1,1.3,0.3,1.7,0.5c0.5,0.3,1,0.8,0.4,2c-0.4,0.9,0.9,1.6,1.4,0.7C84.9,54.3,85.6,53.1,84.5,51.9z"/>
	<path class="st2" d="M83.1,63.4c-0.1-0.1-0.3-0.1-0.4,0c-0.2,0.1-0.3,0.2-0.3,0.3c-0.5,1.3-1.5,1-2.7,0.6c-0.3-0.1-0.5-0.2-0.8-0.2
		c-0.8-0.2-2.3-0.4-2.9,0.7c-0.5,1.1-0.3,2.5,0.6,3.5c0.4,0.5,0.8,0.9,1.2,1.3c0.2,0.2,0.4,0.4,0.6,0.6c0.3,0.3,0.6,0.7,0.8,1
		c0.1,0.1,0,0.2,0,0.2c-0.1,0.2-0.9,0.3-1.3,0.3c-0.1,0-0.3,0-0.3,0c-0.4,0.1-0.6,0.4-0.6,0.7c0,0.3,0.1,0.5,0.3,0.6
		c0.1,0,0.2,0.1,0.3,0.1c1,0.1,2.4,0,3-0.7c0.3-0.4,0.4-0.8,0.3-1.4c-0.2-1-1-1.7-1.8-2.4c-0.8-0.7-1.6-1.4-1.7-2.3
		c0-0.4,0-0.6,0.2-0.7c0.4-0.4,1.6,0,2.5,0.2c0.5,0.1,0.8,0.3,1.1,0.3c0.8,0.1,1.4-0.1,1.8-0.6c0.4-0.4,0.5-1.1,0.4-1.8
		C83.3,63.5,83.1,63.4,83.1,63.4z"/>
	<path class="st2" d="M2.5,171.4c4.2-3.4,5.5-10.3,6.6-15.2c0-0.2,0-0.4-0.1-0.5c0.3-0.2,0.6-0.5,0.9-0.8c2.7-2.9,6-9,5.1-13.3
		c1.3-1.3,1.6-3.1-0.3-5.3c-3.5-4.1-9.5-6.6-14.3-8.7c-0.1,0-0.2-0.1-0.4-0.1v2.1c1.1,0.4,2.1,0.8,3.2,1.3
		c1.9,0.9,13.9,6.8,10.6,9.7c-2.8,2.4-8.5,2-11.9,1.8c-0.6,0-1.2-0.1-1.8-0.1v1.8c3.4,0.5,6.8,0.5,10.3-0.3c1.3-0.3,2.5-0.7,3.5-1.3
		c-0.4,3.8-2.5,7.8-4.7,10.7c-2.3,3.1-5.7,2.9-9.1,2.3v1.9c2.7,0.4,5.4,0.4,7.6-0.7c-1.7,4.8-2.8,12-7.6,14.3v2
		c0.3-0.1,0.6-0.3,0.9-0.4c-0.3,0.8-0.6,1.7-0.9,2.5v5.6c1.1-3,1.9-6.2,2.6-8.9C2.6,171.5,2.6,171.5,2.5,171.4z"/>
	<path class="st2" d="M234.8,125.2c2.6,0.5,5.2,1.2,7.7,2.2v2.1c-2.7-1-5.4-1.6-8.2-2.2v-0.1c-0.8-0.2-1.5-0.3-2.2-0.6H232
		c-0.1,0.6-0.3,1.2-0.5,1.9c-0.1,0.3-0.3,0.5-0.5,0.5c-0.1,0.3-0.3,0.6-0.7,0.6c-2.2,0.3-3.9-0.2-5.7-1.4c-0.3-0.2-0.5-0.5-0.4-0.9
		c0.2-0.8,0.4-1.6,0.6-2.5c-0.1,0-0.2,0-0.4,0h-0.1l-0.1,0.1l-0.1-0.1c-0.1,0-0.2,0-0.2,0c-0.1,0-0.2,0-0.3,0
		c-2-0.3-3.9-0.5-5.9-0.7c-5.7-0.5-12.5-1.1-17.9,1.2c-1.5,0.7-5.2,3-3.7,5.1c1.1,1.6,3.1,2.4,4.9,3.1c5.4,2,11.1,3,16.8,3.9
		c4.3,0.7,8.6,1.1,12.8,2.3c3.8,1.1,7.8,2.1,11.8,2.5v1.8c-4.9-0.7-9.8-2.2-14.7-3.1c-5.8-1.1-11.8-1.8-17.6-3
		c-4.8-1-11.2-2-14.9-5.6c-0.2-0.2-0.4-0.4-0.5-0.6c-0.1,2.7-0.2,5.6,2.3,7.4c4.3,3.1,9.4,3.5,14.4,4.1c8.6,1.1,18.1,1.5,26.2,4.5
		c0.8,0.3,0.4,1.7-0.5,1.5c-5.9-1.6-11.8-2.4-17.8-3.2c-5.3-0.7-11.1-1.1-16.3-2.5c-2.1-0.6-4.5-1.4-6.3-2.7
		c0.6,1.3,0.6,2.6,0.4,4.2c-0.4,3.2,0.2,6.5,4.2,6.4c1.5,0,3-0.2,4.5-0.3c6.3-0.2,12.9,2.9,18.8,4.7c1,0.3,0.7,1.8-0.3,1.6
		c-4.7-1-9.2-3-13.9-4c-3.5-0.7-6.9,0.3-10.3-0.3c-1.3-0.2-2.4-0.7-3.2-1.5c-0.1,1.6-0.2,3.4-0.1,5.2c0.1,0.1,0.1,0.1,0.1,0.2
		c2.2,7.4,10,4.4,15.3,7.2c0.8,0.4,0.4,1.8-0.5,1.5c-5-1.6-12.6-0.8-15.1-5.7c-0.4,3.1-0.7,6.2-1.1,9.3c4.6,3.7,9.2,6.6,14.9,8.2
		c4.6,1.3,9.4,1.9,13.9,3.7c0.8,0.3,0.3,1.5-0.4,1.3c-9.6-1.8-21.8-4.1-28.5-11.9c-0.3,2.2-0.5,4.3-0.9,6.5c0.3,0.1,0.5,0.3,0.4,0.7
		c-1,4.8,7.2,8,10.6,9.4c4.2,1.7,9.4,3.8,14.1,3.7c1,0,1.2,1.6,0.1,1.6c-5.9,0.2-12.8-2.6-17.9-5.3c-2.3-1.2-6.5-3.4-7.9-6.3
		c-0.7,3.3-1.5,7.2-1.3,10.7c0.1,0.5,0.1,1.1,0.2,1.6c0.2,1,0.4,2,0.8,2.9c0.1,0,0.2,0.1,0.2,0.1c4.1,3.4,8.4,6.6,13.3,8.8
		c3.5,1.6,7.1,0,9.6,3.3c0.7,0.9-0.8,1.9-1.5,1c-1.3-1.8-5.8-1.6-7.8-2.3c-1.6-0.5-3.1-1.6-4.6-2.4c-3.6-1.8-6.6-3.9-9.2-6.7
		c-0.3,0.2-0.7,0.2-1-0.2c0-0.1-0.1-0.2-0.1-0.2c-0.6,4.6-2.2,9.2-1,13.9c0.1,0.3,0.1,0.5,0.2,0.8c0.1,0,0.2,0,0.2,0
		c3.1,0.4,4.3,2.2,6.6,4.1c3.3,2.7,7.8,2.9,11.7,4.4c0.8,0.3,0.4,1.7-0.5,1.5c-3.4-0.9-7.6-1.5-10.5-3.4c-2.6-1.7-4.1-4.4-7.1-5.4
		c1.6,4.1,4.3,6.8,8.1,8.9c0.3-0.2,0.6-0.2,0.9,0c3.3,2.3,7.8,3.5,11.8,3.2c5.7-0.5,8.1-3.5,10.9-8.2c0.2-0.3,0.4-0.7,0.6-1
		c-3,0.1-7.1,0.4-9.2-1.8c-1.8-1.9-3.2-0.5-5.1-0.9c-2-0.4-3.7-0.9-5.5-1.9c-0.7-0.4-0.2-1.2,0.5-1c3,1,4.7,0.8,7.7,0.6
		c0.9-0.1,1.5-0.1,2.3,0.6c3.2,3,6.4,2.3,10.3,2.7c2.5-4.6,4.6-9.3,6.6-14c-3.9,0.7-7,0.1-11-0.6c-3.9-0.7-7.7-0.9-11.1-3.2
		c-0.7-0.4-0.2-1.5,0.6-1.1c3.6,1.9,7,1.8,10.8,2.8c3.8,0.9,7.1,1.2,10.9,0.5c0.1,0,0.3,0,0.4,0.1c1.2-2.7,2.3-5.4,3.5-8.1
		c-2.5,2.1-5.6,3.1-9.7,2.4c-0.9-0.1-0.8-1.6,0.1-1.6c6.1,0.2,10.3-2.2,12.8-7.9c1.3-2.9,2.1-5.9,3.1-8.8v5.6
		c-1.1,3-2.4,5.8-4.2,8.1c0,0.1,0.1,0.2,0,0.3c-2,6.4-4.7,12.7-7.6,18.7c-2.6,5.4-5.3,12-9.6,16.3c-3.3,3.3-8.7,3.7-13.5,2.6
		c-1,2.7-1.8,5.5-2.1,8.4c-0.1,0.4-0.6,0.8-1,0.7c-1.4-0.4-2.8-1-3.9-2c-0.2-0.2-0.3-0.5-0.3-0.8c0.6-2.7,1.5-5.3,2.9-7.8
		c-0.3-0.2-0.7-0.3-1-0.5h-0.2c-5.1-1.6-9.6-5.5-11.3-10.7c-2.2-6.8,0-13.1,0.6-19.8c-0.9-4.3,0.3-9.2,1-13.2
		c1.3-7.4,1-15.2,3.2-22.5h-0.2c-0.3-2.8,0.1-5.9,0.5-8.3c-0.2-0.4-0.4-0.8-0.5-1.2c-0.9-2.9,1.2-5.7-0.2-8.8
		c-0.1-0.3,0-0.5,0.2-0.6c-0.5-0.5-1-1.1-1.3-1.8c-1.2-2.3-0.6-5.4-0.3-7.8c0-0.2,0.2-0.3,0.3-0.4c-0.1-2.2,1.9-4.4,3.9-5.6
		c5-2.9,12.1-2.6,17.6-2.1c2.6,0.2,5.4,0.5,8.1,1c0.2,0,0.4,0.1,0.7,0.1c0.2,0,0.4,0.1,0.6,0.1l0,0h0.2c1.2-4.4,2.6-8.8,3.2-13.3
		c0.1-0.5,0.9-0.6,1-0.1h0.1c1.8,0.3,3.6,0.5,5.3,0.8c0.4,0.1,0.9,0.6,0.7,1.1c-1.5,4.4-2.2,8.9-3.2,13.4l0,0
		C233.2,125,234,125.1,234.8,125.2L234.8,125.2z M204.4,225.7c-1,2.3-1.8,4.6-2.4,7c0.6,0.4,1.2,0.7,1.8,1c0.4-2.6,1.1-5.1,2-7.5
		C205.4,226,204.9,225.9,204.4,225.7z M233.6,112.2c-1.4-0.2-2.7-0.4-4.1-0.6c-0.2,2.7-0.8,5.3-1.5,7.8c-0.5,2-1.1,3.9-1.6,5.9
		c-0.6,2.6,1.6,2.9,3.9,2.6h0.1C230.9,122.6,231.9,117.2,233.6,112.2z"/>
	<path class="st2" d="M237.5,156.1c1.5,0.5,3.2,0.9,4.9,1.2v-1.9c-1.6-0.3-3.2-0.7-4.6-0.8C236.8,154.5,236.6,155.9,237.5,156.1z"/>
	<path class="st2" d="M233.8,169.7c-1.8,0.1-3.5,1.1-5.2,1c-4.2-0.3-8.3-0.9-12.5-1.7c-1-0.2-1.3,1.3-0.3,1.6
		c2.4,0.8,4.9,1.1,7.4,1.4c1.9,0.2,4.6,0.9,6.5,0.6c2.8-0.6,4.8-0.9,7.8,0.3c1.4,0.6,3.1,0.7,4.6,0.2c0.2-0.1,0.3-0.1,0.5-0.2v-2
		c-0.8,0.4-1.6,0.6-2.6,0.7C237.7,171.7,235.9,169.5,233.8,169.7z"/>
	<path class="st2" d="M0,45.5v0.8l0.1-0.1C0.2,45.9,0.2,45.6,0,45.5z"/>
	<path class="st2" d="M17.2,95c0.3-0.1,0.5-0.2,0.8-0.3c2.8-1.1,6.1-2.9,6.9-6c0.8-3.2-2.5-5.5-4.9-7c-5.3-8.5-9.6-17.6-6.9-27.8
		c0.1-0.2,0-0.4-0.1-0.5c0.4-1,0.5-2.3,0.1-3.8c-0.1-0.2-0.2-0.4-0.4-0.5c-0.6-2.2-3.6-4-5.4-4.7c-0.9-0.4-1.9-0.7-2.9-0.8
		c-1.4-0.4-3-0.5-4.4-0.1v1.8c0.8-0.6,2.3-0.4,3.2-0.2c1.7,0.3,3.2,1.1,4.7,1.8c0.2,0.1,0.3,0,0.5-0.1c1.3,0.6,2.4,1.5,2.7,2.9
		c0.5,2.5-3.9,1.2-4.9,0.9c-0.6-0.2-5-2.4-6.2-4.1V49c1.2,1,2.6,1.8,3.9,2.5c1.8,1,5.5,2.4,7.6,1c-0.2,1.1-0.6,2-1.8,2.6
		C8.1,56,5.8,55.5,4.2,55c-1.5-0.4-2.9-1.1-4.2-1.9V55c1.1,0.6,2.3,1.2,3.6,1.6c2.7,0.9,5.7,0.7,7.7-0.7c-2.7,9.1,2.1,18.5,6.8,26.3
		c0,0.1,0,0.2,0,0.3c-0.5,0.2-0.9,0.3-1.4,0.5c-0.2-0.1-0.5-0.2-0.9-0.1c-0.9,0.3-1.8,0.6-2.8,0.9c-0.1,0-0.2,0-0.3,0.1
		c-0.1,0-0.2,0-0.2,0.1c-4,1-8.3,1-12.5,0.4v2c5,0.7,10,0.5,14.7-0.9c1.5-0.2,3-0.7,4.5-1.3C19,89.6,7.9,88.9,0,87.6v1.9
		c8.6,1.3,20.4,1.9,21-4.8c1.9,1.6,3.1,3.6,0.6,5.9c-1.4,1.3-3.2,2.1-5.1,2.8c-0.2,0-0.4,0.1-0.6,0.2c-0.8,0.3-1.7,0.5-2.5,0.7
		c-4.5,1.2-9,0.9-13.5,0V96c4.4,0.8,8.8,1,13.3,0.1c-3.8,2.9-8.5,4-13.3,3.9v2C6.5,102.1,12.8,100.1,17.2,95z"/>
	<path class="st2" d="M240.6,46.5c-0.3,0.5-0.6,1-0.9,1.5c-0.2,0.4-0.8,1.7-1.1,2.7l0,0c-4.4,6.7-12.2,10-19.8,12.3
		c-0.1-0.1-0.3-0.2-0.5-0.2c-7.3,0.7-15.4,4.6-10.6,12.8c0.3,0.6,0.7,1.2,1.1,1.7c0.7,11.1,11.9,18.8,21.4,22.2
		c3.8,1.4,8.1,2.2,12.3,2.3v-2c-4.2-0.1-8.5-1-12.4-2.4c-8.3-3-16.3-9.1-19.3-17.6c5.2,5.7,13.1,9.6,19.9,12.4
		c3.9,1.6,7.8,2.9,11.8,3.7v-1.8c-3.8-0.8-7.5-2.2-11.1-3.6c-7.3-2.9-14.2-6.9-19.6-12.5c-2-2.1-4.1-4.7-4-7.7
		c0.1-2.1,1.7-3.4,3.7-4.4c-2.2,6,3.4,11.2,7.9,14.5c4.6,3.5,9.5,6,15.1,7.3c1.5,0.3,4.5,1,8,1.6v-1.9c-3.2-0.5-6-1.1-7.1-1.4
		c-4.5-1-8.1-2.7-11.9-5.1c-4.6-2.9-11.6-7.7-10.6-13.8C219,77,230.7,84.3,242.6,86v-2c-11.4-1.7-22.6-8.7-28.2-18
		c8.9-2.4,19.8-5.6,25-13.7c1,0.9,2.1,1.7,3.3,2.4v-1.9c-0.3-0.2-0.7-0.4-1-0.7c-1.5-1.1-0.9-2.9,0-4.5c0.3,0.4,0.7,0.8,1,1.1v-2.4
		c0-0.1-0.1-0.1-0.1-0.2c0-0.1,0.1-0.1,0.1-0.2v-0.8c0,0,0,0-0.1-0.1l0,0l0,0v-1.8c-0.4,0.1-0.7,0.3-1.1,0.5
		C240.5,44.6,240.4,45.6,240.6,46.5z"/>
	<path class="st2" d="M11.2,15c-0.3-0.7-1.4-0.6-1.6,0.1C8,19.6,4,21.1,0,22.8v1.5c3.9-1.7,8-2.9,10.3-6.6c1.2,4.4,1,8.6-4.1,10.6
		c-1.9,0.8-4,1.1-6.2,1.4v1.8c3.3-0.3,6.6-1,9.3-2.7C14.2,25.7,12.8,19.5,11.2,15z"/>
	<path class="st2" d="M6.8,24.1c-2.3,0.8-4.6,1.3-6.8,2V28c2.5-0.8,5.1-1.3,7.6-2.2C8.7,25.4,7.9,23.7,6.8,24.1z"/>
	<path class="st2" d="M0,10.5v8C0.9,15.9,0.7,13.1,0,10.5z"/>
	<path class="st2" d="M241.2,6.8c0.5,1.2,0.9,2.4,1.2,3.7v8c-0.1,0.3-0.2,0.5-0.3,0.8c-0.9,2.1-2.4,3.9-3.9,5.7
		c1.3-0.9,2.7-1.5,4.2-2.2v1.5c-2.6,1.2-5.1,2.5-6.9,5.1c2.1-1.6,4.4-2.5,6.9-3.2V28c-1.6,0.5-3.2,1.1-4.7,2
		c1.6-0.1,3.1-0.2,4.7-0.4v1.8c-2.5,0.3-5.1,0.3-7.4,0.6c-0.3,0-0.6-0.1-0.8-0.3c-0.2,0.1-0.4,0-0.5-0.1c-0.3-0.1-0.5-0.4-0.4-0.7
		c0.1-0.4,0.2-0.8,0.3-1.1c-0.2-0.6-0.4-1.3-0.4-1.9c-1.6-3.6-6.4-6.1-4.7-10.7c2.1-5.4,8.9-5.4,11.2-10.4
		C240,6.3,240.9,6.1,241.2,6.8z M240.3,9c-2.9,3.5-9.2,4.4-10.2,8.8c-0.7,3.2,1.5,5.3,3.1,7.6c0.6-4.3,3.5-8.6,4.8-12.6
		c0.2-0.6,1.2-0.4,1.1,0.2c-0.9,4.9-4.6,9.5-4.3,14.5c1.1-1.7,2.5-3.3,3.8-5C241.7,18.2,241.9,13.7,240.3,9z"/>
</g>
</svg>
